<?xml version="1.0" encoding="utf-8"?>
<svg version="1.0" xmlns="http://www.w3.org/2000/svg" width="1024.000000pt" height="1024.000000pt" viewBox="0 0 1024.000000 1024.000000" preserveAspectRatio="xMidYMid meet">
  <g transform="translate(0.000000,1024.000000) scale(0.100000,-0.100000)" stroke="none">
    <path d="M 4775.152 9236.191 C 4763.564 9221.695 4759.003 9136.15 4755 8821.063 L 4750.019 8426.562 L 4706.863 8362.807 C 4658.051 8291.052 4527.5 8142.792 4462.872 8098.961 L 4410.429 8073.288 L 4265.192 8108.856 C 4138.895 8139.91 4112.221 8142.714 4088.818 8131.498 C 4070.879 8122.684 4059.479 8106.713 4057.031 8088.552 C 4054.57 8065.257 4058.45 8046.577 4071.167 8032.52 C 4083.675 8018.696 4105.209 8008.314 4136.606 7999.198 C 4197.586 7981.494 4254.135 7931.944 4290.59 7864.643 L 4308.39 7830.917 L 4258.519 7729.218 C 4091.898 7395.782 3794.949 7066.874 3525.605 6919.389 L 3465 6886.413 L 3465 6967 C 3464.999 7017.058 3461.998 7146.141 3457.997 7255.172 C 3454.495 7364.719 3451.459 7424.133 3441.655 7456.091 C 3436.602 7472.562 3428.923 7483.035 3418.974 7488.467 C 3409.077 7493.87 3396.215 7495 3381 7495 C 3367.596 7495 3355.915 7493.077 3346.972 7487.749 C 3337.996 7482.401 3330.896 7472.913 3326.273 7459.505 C 3317.297 7433.475 3315.003 7388.628 3315 7314 L 3315 7183.651 L 3272.983 7126.977 C 3170.585 6988.555 2981.472 6859.587 2872.715 6852.992 C 2809.651 6849.487 2781.127 6847.051 2753.062 6861.684 C 2724.629 6876.507 2696.748 6908.809 2636.725 6976.336 C 2576.757 7043.299 2483.793 7151.258 2429.821 7216.224 C 2348.637 7312.421 2324.726 7335 2301 7335 C 2283.209 7335 2268.567 7330.102 2259.295 7321.239 C 2249.981 7312.336 2245 7298.335 2245 7282 C 2245 7266.894 2281.603 7192.627 2325.689 7117.467 C 2503.4 6815.208 2596.057 6384.552 2582.002 5930.155 C 2569.086 5511.723 2503.328 5265.723 2289.51 4840.199 C 2265.404 4790.95 2255.589 4763.287 2237.784 4754.482 C 2219.599 4745.49 2116.228 4755 2092 4755 C 2075.282 4755 2053.715 4748.347 2043 4741 C 2034.595 4734.619 2028.947 4727.962 2027.66 4717.088 C 2026.459 4706.95 2028.579 4692.127 2033.097 4668.019 C 2039.07 4638.184 2049.041 4562.359 2055.031 4499.448 C 2062.031 4436.448 2069.023 4373.532 2070.015 4360.617 L 2070.036 4360.345 L 2070.086 4360.079 C 2073.063 4344.219 2085 4251.68 2085 4169 C 2085 4121.895 2088.62 4042.415 2061.433 3982.035 L 2061.298 3981.735 L 2061.2 3981.401 C 2057.773 3969.65 2055.528 3960.573 2055.497 3953.424 C 2055.465 3945.873 2058.356 3939.108 2063.918 3934.069 C 2074.223 3924.733 2095.668 3917.353 2132.948 3900.44 C 2172.676 3882.584 2223 3852.027 2245.618 3831.317 C 2294.091 3787.006 2359.32 3661.409 2377.093 3578.038 C 2382.793 3551.237 2399.5 3534.18 2415.382 3518.673 C 2431.264 3503.165 2446.317 3489.175 2450.097 3466.019 C 2456.318 3435.381 2497.282 3355.178 2491.076 3330.869 C 2488.302 3314.553 2470.665 3279.478 2450.866 3251.813 C 2401.501 3178.983 2392.071 3139.444 2397.006 3018.764 C 2401.06 2933.848 2416.007 2865.298 2440.667 2816.736 C 2465.486 2767.861 2501.502 2738.115 2545.23 2731.06 C 2621.681 2719.211 2692.824 2690.511 2796.478 2628.683 C 2975.614 2524.345 3037.893 2521.221 3238.028 2610.43 C 3418.6 2690.284 3479.588 2705 3626 2705 C 3776.318 2705 3835.162 2688.378 4004.684 2599.569 C 4248.894 2472.285 4348.123 2474.243 4652.137 2618.48 C 4806.71 2691.324 4877.638 2710 5005 2710 C 5127.356 2710 5171.215 2698.302 5298.764 2634.528 C 5431.215 2568.302 5492.472 2552.087 5591.244 2557.006 C 5673.78 2561.091 5685.747 2564.338 5818.165 2628.493 C 5983.67 2707.315 6081.372 2731.078 6198.567 2721.019 C 6301.102 2712.104 6353.306 2697.309 6492.972 2635.43 C 6592.28 2591.317 6627.157 2581.105 6685.69 2577.01 C 6832.083 2568.333 6941.231 2630.318 7068.964 2793.953 C 7152.183 2902.291 7215.617 3020.181 7239.839 3113.74 C 7264.92 3209.448 7260.899 3349.77 7230.801 3453.398 C 7205.637 3539.816 7204.692 3540.653 7220.91 3621.056 C 7240.792 3724.639 7283.428 3836.74 7332.149 3907.209 L 7367.713 3960.076 L 7435.163 3962.003 C 7772.629 3973.062 8045.661 4034.25 8297.171 4155.496 C 8549.009 4276.9 8678.284 4418.762 8720.886 4620.938 C 8745.925 4736.772 8724.817 4910.195 8669.667 5052.795 C 8668.528 5055.671 8668.266 5056.986 8668.455 5058.195 C 8668.596 5059.089 8668.239 5058.61 8669.562 5059.254 C 8673.318 5061.081 8681.033 5061.506 8695.811 5061.004 C 8723.317 5060.174 8743.395 5067.962 8750.035 5080.394 C 8753.513 5086.905 8753.654 5095.825 8750.251 5103.934 C 8746.98 5111.732 8740.091 5120.438 8730.249 5128.801 C 8714.729 5142.148 8685.444 5156.718 8665.841 5160.929 C 8645.918 5164.257 8637.086 5167.908 8628.453 5191.823 C 8619.368 5216.989 8612.446 5262.736 8600.952 5348.693 C 8587.446 5445.234 8580.334 5490.511 8587.987 5522.46 C 8595.518 5553.898 8617.304 5572.249 8664.375 5615.311 C 8705.517 5652.952 8729.705 5678.938 8738.781 5698.386 C 8743.517 5708.533 8744.374 5718.402 8741.317 5726.278 C 8738.292 5734.073 8730.985 5741.208 8721.572 5747.288 C 8707.827 5755.143 8690.327 5755.753 8670.953 5748.291 C 8651.943 5740.97 8629.44 5725.938 8603.694 5703.751 C 8545.336 5652.162 8494.531 5629.745 8383.087 5608.916 C 8337.09 5600.417 8314.626 5596.264 8295.156 5596.873 C 8275.851 5597.476 8259.541 5602.757 8225.545 5613.755 C 8021.143 5680.467 7858.02 5787.971 7545.295 6062.761 C 7484.82 6115.738 7449.754 6147.323 7431.399 6166.918 C 7422.35 6176.578 7417.866 6182.663 7416.166 6187.078 C 7415.443 6188.957 7415.397 6189.399 7415.638 6190.308 C 7415.847 6191.098 7415.87 6191.228 7417.018 6192.016 C 7428.293 6200.578 7434.52 6214.326 7434.249 6227.726 C 7433.98 6241.028 7427.202 6256.068 7416.123 6266.904 C 7405.39 6275.311 7367.314 6288.811 7330.962 6295.907 C 7230.05 6315.4 7097.563 6422.457 6975.985 6582.02 C 6927.04 6646.944 6869.386 6729.561 6825.42 6796.009 C 6803.445 6829.221 6784.952 6858.3 6772.682 6879.103 C 6766.564 6889.475 6762.087 6897.622 6759.477 6903.221 C 6759.362 6903.469 6759.251 6903.709 6759.146 6903.94 C 6772.369 6901.68 6799.97 6896.553 6828.921 6890.118 C 6924.564 6869.061 6975.483 6871.314 6999.68 6897.615 C 7005.801 6904.269 7010.01 6911.584 7011.612 6918.273 C 7013.251 6925.113 7012.351 6932.728 7009.222 6938.986 C 7003.196 6951.039 6987.793 6961.884 6965.697 6969.703 C 6950.3 6975.401 6913.291 7003.75 6883.544 7033.527 C 6827.275 7090.261 6771.912 7164.532 6737.669 7221.937 C 6720.594 7250.56 6709.074 7274.418 6705.276 7289.808 C 6703.461 7297.163 6703.375 7300.526 6704.795 7302.41 C 6705.284 7303.058 6704.951 7302.881 6706.307 7302.95 C 6708.022 7303.037 6710.011 7302.639 6713.229 7301.324 C 6816.869 7262.174 6909.009 7253.026 7063.509 7269.026 L 7151.032 7277.877 L 7223.714 7240.553 C 7286.155 7208.378 7311.153 7201.104 7377.702 7197.009 C 7445.241 7193.035 7465.484 7196.282 7508.125 7215.474 L 7571.821 7245.372 L 7555.79 7247.937 L 7505.686 7255.953 C 7441.317 7264.779 7416.298 7275.423 7339.654 7323.238 C 7304.554 7345.297 7258.253 7371.447 7235.948 7380.605 L 7210.129 7391.86 L 7226.437 7396.211 C 7245.442 7402.121 7280.155 7398.08 7336.855 7385.133 C 7440.445 7360.062 7484.079 7360.245 7538.11 7384.467 C 7567.357 7398.1 7584.507 7408.99 7585.346 7416.71 C 7585.663 7419.632 7583.469 7423.5 7580.933 7425.158 C 7578.821 7426.539 7575.44 7427.719 7571.756 7428.488 C 7564.698 7429.962 7553.887 7430.744 7540 7431 C 7502.893 7430.835 7470.038 7443.557 7371.292 7494.444 L 7246.283 7558.965 L 7075.162 7563.997 L 6906.222 7569.96 L 6805.148 7618.515 L 6705 7666.158 L 6705 7747 C 6704.982 7800.797 6700.611 7837.406 6689.907 7860.363 C 6678.905 7883.957 6659.646 7894.195 6634 7895 C 6623.281 7894.956 6613.541 7893.123 6606.111 7887.946 C 6598.752 7882.82 6592.816 7873.785 6588.737 7861.022 C 6580.812 7836.223 6577.509 7793.281 6575.003 7721.179 L 6570.042 7586.243 L 6526.493 7497.166 C 6489.773 7420.618 6469.271 7394.315 6387.493 7313.564 C 6285.847 7213.853 6178.348 7140.465 6146.316 7148.824 C 6135.748 7151.662 6039.22 7198.48 5932.272 7253.454 L 5738.081 7352.531 L 5720.71 7403.678 C 5694.574 7476.99 5652.226 7558.642 5610.044 7617.941 C 5594.102 7639.857 5586.054 7651.927 5583.388 7660.272 C 5581.054 7667.577 5582.582 7670.178 5588.7 7676.637 C 5604.34 7694.597 5607.062 7719.758 5599.672 7739.155 C 5595.952 7748.921 5589.398 7758.214 5581.328 7764.518 C 5573.254 7770.826 5562.398 7775 5551 7775 C 5541.551 7775 5511.249 7781.84 5483.39 7789.803 C 5403.262 7813.359 5124.456 8051.602 4962.714 8236.348 C 4899.093 8306.792 4894.736 8315.118 4895 8355 L 4895 8391.91 L 4927.753 8375.533 C 5042.769 8317.274 5176.433 8311.063 5390.052 8355.112 C 5468.876 8372.081 5560.35 8385 5592 8385 C 5621 8385 5634.264 8385.028 5640.514 8381.903 C 5643.03 8380.645 5643.502 8379.878 5644.213 8376.681 C 5645.001 8373.132 5645 8368.25 5645 8361 C 5645 8343.185 5650.592 8326.978 5660.662 8314.92 C 5670.7 8302.901 5686.1 8293.821 5704.787 8289.149 C 5737.558 8280.957 5840.753 8289.073 5913.131 8306.13 C 5956.577 8316.068 5980.447 8316.06 6015.891 8308.124 C 6220.028 8261.098 6227.26 8260.126 6278.3 8273.172 C 6304.578 8280.265 6340.192 8294.558 6356.727 8305.808 L 6396.144 8330.274 L 6310.078 8348.883 C 6257.565 8360.724 6218.398 8378.371 6169.744 8410.18 C 6060.112 8482.48 6010.746 8498 5898 8498 C 5862.576 8498 5838.386 8498.741 5822.49 8500.712 C 5807.036 8502.629 5801.241 8504.347 5800.596 8507.97 C 5797.793 8513.824 5799.966 8543.462 5804.938 8573.212 C 5819.963 8667.434 5838.886 8944.56 5831.818 8973.338 C 5826.226 8992.386 5808.069 9011.875 5779.508 9028.326 C 5677.456 9087.658 5520.853 9100.966 5304.289 9069.949 C 5144.813 9046.969 5013.047 9055.835 4909.795 9096.667 C 4897.015 9101.57 4891.987 9103.932 4888.865 9111.423 C 4885.454 9119.61 4885 9133.086 4885 9160 C 4885 9200.51 4879.211 9225.995 4867.611 9237.458 C 4856.506 9248.632 4837.666 9254.511 4820.3 9254.25 C 4802.909 9253.988 4784.804 9247.459 4775.152 9236.191 Z M 5324.552 8885.284 C 5312.34 8860.67 5305.051 8825.504 5305 8788 L 5305 8725 L 5373 8725 C 5415.447 8725.04 5449.601 8731.322 5475.307 8744.564 L 5505 8759.812 L 5505 8720 C 5505.006 8693.822 5508.023 8651.535 5511.033 8625.427 L 5516.528 8589.294 L 5478.42 8610.375 C 5441.79 8630.621 5415.583 8637 5373 8637 C 5342.724 8637 5314.224 8633.485 5309 8630 L 5308.558 8629.705 L 5308.3 8629.363 C 5302.667 8621.892 5306.059 8585.453 5313.353 8550.114 C 5320.644 8514.793 5331.731 8477.639 5340.263 8467.678 C 5346.813 8460.439 5351.815 8453.379 5353.916 8449.591 C 5353.251 8449.448 5352.482 8449.301 5351.585 8449.146 C 5346.871 8448.33 5340.058 8447.606 5331.394 8446.987 C 5313.994 8445.744 5289.923 8445 5263 8445 C 5215.5 8445 5192.132 8444.998 5182.852 8447.347 C 5182.172 8447.519 5181.706 8447.64 5181.379 8447.736 C 5182.419 8449.635 5184.888 8452.401 5188.716 8456.655 C 5202.329 8471.832 5208.938 8501.292 5212.986 8555.631 L 5217.989 8632.676 L 5218.37 8638.534 L 5149.58 8631.983 C 5107.022 8628.862 5074.749 8618.392 5055.034 8604.025 C 5047.179 8598.126 5039.7 8593.305 5033.869 8590.146 C 5031.648 8588.943 5029.84 8588.067 5028.355 8587.468 C 5027.464 8596.255 5023.47 8633.939 5019.985 8678.383 L 5013.64 8762.681 L 5048.752 8745.534 C 5072.25 8733.353 5119.094 8720.105 5152.547 8717.021 L 5212.585 8712.017 L 5218.397 8711.533 L 5212.988 8788.351 C 5209.936 8829.705 5200.537 8871.718 5190.169 8886.762 L 5178.636 8904.782 L 5213.448 8908.02 C 5236.359 8910.013 5276.225 8912.005 5301.2 8913.004 L 5339.626 8914.639 L 5324.552 8885.284 Z M 4748.191 8285.115 C 4747.997 8283.911 4747.789 8282.646 4747.568 8281.322 C 4745.574 8269.358 4742.592 8252.957 4739.102 8235.008 C 4724.156 8166.232 4677.725 8023.403 4666.204 8010.254 C 4666.73 8009.906 4665.347 8010.191 4660.797 8010.234 C 4656.015 8010.279 4649.609 8010.902 4641.734 8012.071 C 4625.892 8014.422 4605.182 8018.856 4583.316 8024.824 L 4511.75 8044.261 L 4551.113 8076.087 C 4606.382 8119.34 4712.92 8229.94 4738.24 8270.35 C 4742.096 8276.137 4745.487 8281.149 4748.191 8285.115 Z M 5163.856 7935.112 C 5197.819 7908.142 5227.782 7883.423 5248.746 7865.454 C 5256.747 7858.595 5263.402 7852.753 5268.469 7848.142 C 5238.811 7855.086 5167.486 7872.726 5086.213 7892.851 L 4899.912 7939.916 L 4894.287 8187.415 L 4963.382 8116.548 C 5005.554 8071.388 5095.755 7990.198 5163.856 7935.112 Z M 4754.308 8072.436 C 4754.769 8062.616 4755 8049.427 4755 8035 C 4755 8011.091 4754.537 7998.215 4752.038 7991.172 C 4750.944 7988.09 4750.257 7987.234 4748.422 7986.285 C 4746.471 7985.276 4744.19 7985 4740 7985 C 4734.871 7985 4730.62 7985.638 4727.357 7986.65 C 4726.375 7986.955 4725.706 7987.206 4725.185 7987.463 C 4726.451 7994.141 4734.009 8017.062 4742.084 8039.695 C 4746.392 8051.768 4750.769 8063.524 4754.308 8072.436 Z M 4378.003 7594.84 C 4379.115 7554.688 4368.329 7521.767 4318.416 7406.997 C 4201.477 7139.127 4040.737 6821.584 3972.934 6726.91 C 3947.061 6688.808 3944.447 6687.793 3911.668 6691.955 C 3883.695 6695.882 3866.35 6691.421 3853.464 6678.536 C 3843.084 6668.155 3836.789 6645.055 3835.509 6623.547 C 3834.227 6602.015 3837.923 6579.006 3847.464 6569.464 C 3848.428 6568.501 3848.413 6568.116 3847.548 6564.556 C 3846.566 6560.516 3844.182 6555.306 3839.931 6548.019 C 3831.303 6533.228 3815.988 6511.983 3793.032 6482.042 C 3758 6435.999 3709.927 6369.895 3686.849 6334.787 C 3674.883 6317.337 3663.968 6301.959 3655.767 6291.147 C 3652.211 6286.46 3649.248 6282.737 3646.936 6280.078 C 3639.458 6303.183 3607.171 6411.49 3569.805 6541.382 C 3530.046 6678.647 3495.432 6795.831 3489.087 6812.691 C 3489.255 6812.885 3489.477 6813.127 3489.781 6813.446 C 3491.646 6815.409 3494.63 6817.813 3498.867 6820.779 C 3507.456 6826.791 3519.906 6834.119 3534.28 6841.55 C 3816.964 6985.071 4146.068 7334.195 4302.501 7657.822 L 4344.058 7743.59 L 4358.24 7699.47 C 4368.164 7668.767 4377.042 7622.461 4378.003 7594.84 Z M 6578.48 7434.225 C 6577.649 7409.913 6575.824 7360.306 6573.006 7303.247 C 6569.009 7221.297 6563.035 7134.552 6559.058 7108.76 L 6553.648 7066.397 L 6512.503 7069.975 C 6486.39 7072.983 6435.396 7076.985 6398.336 7078.989 C 6361.689 7081.945 6309.537 7093.736 6281.97 7105.596 L 6241.43 7123.083 L 6269.036 7135.433 C 6355.731 7173.899 6488.796 7297.802 6559.184 7405.263 C 6566.486 7416.46 6573.297 7426.681 6578.48 7434.225 Z M 4389.701 7426.167 C 4389.817 7418.424 4389.255 7406.025 4388.014 7388.375 C 4381.068 7301.744 4355.301 7190.626 4325.473 7127.122 C 4283.224 7032.177 4193.012 6904.424 4100.786 6805.683 C 4103.212 6811.071 4106.1 6817.333 4109.402 6824.378 C 4122.511 6852.343 4141.98 6892.28 4164.474 6937.767 C 4235.512 7078.847 4356.601 7341.05 4385.664 7416.197 C 4387.174 7420.152 4388.513 7423.464 4389.701 7426.167 Z M 5760.703 7263.288 C 5776.873 7255.458 5843.869 7221.662 5921.665 7180.579 C 6011.568 7133.632 6091.809 7087.077 6101.3 7076.637 C 6111.785 7065.103 6128.714 7055 6139 7055 C 6157.634 7055 6179.108 7040.926 6300.948 6947.039 L 6393.422 6876.493 L 6374.536 6857.607 C 6361.454 6845.575 6267.05 6775.037 6163.09 6700.066 L 5974.69 6566.203 L 5928.62 6571.961 C 5899.097 6575.469 5877.728 6573.575 5864.486 6564.792 C 5850.97 6555.827 5845 6538.815 5845 6516 C 5845 6492.941 5854.917 6471.712 5870.992 6456.943 C 5887 6442.237 5910.397 6432.694 5936.706 6431.009 C 5987.477 6429.387 6049.868 6390.147 6117.391 6320.54 C 6162.554 6272.886 6183.432 6255.237 6182.378 6226.559 C 6181.297 6197.128 6157.149 6156.462 6107.598 6064.371 C 6083.608 6019.889 6061.383 5979.435 6044.774 5950.088 C 6036.474 5935.423 6029.608 5923.586 6024.62 5915.398 C 6022.459 5911.85 6020.697 5909.059 6019.322 5907.017 C 6012.183 5915.593 5989.713 5947.444 5964.16 5985.774 C 5934.009 6031.001 5871.709 6105.359 5826.574 6151.496 C 5804.122 6174.447 5785.474 6194.587 5773.277 6208.651 C 5768.965 6213.623 5765.525 6217.756 5763.021 6220.967 C 5772.803 6222.28 5785.047 6227.662 5794.201 6235.159 C 5812.094 6249.487 5815.858 6262.857 5811.893 6283.03 C 5807.642 6298.125 5801.232 6309.332 5786.661 6316.822 C 5772.72 6323.988 5750.445 6328.908 5713.811 6334.934 C 5672.597 6341.663 5629.578 6365.279 5475.761 6467.169 C 5371.744 6535.18 5276.61 6596.263 5264.519 6603.319 C 5239.584 6616.208 5224.611 6647.911 5166.723 6814.64 C 5155.254 6846.549 5146.053 6875.644 5140.459 6896.779 C 5137.672 6907.305 5135.831 6915.634 5135.031 6921.406 C 5134.847 6922.729 5134.726 6923.815 5134.661 6924.719 C 5170.102 6919.97 5310.889 6856.079 5370.196 6815.86 C 5453.636 6760.371 5477.729 6730.511 5513.351 6640.161 C 5524.398 6613.555 5532.673 6595.954 5540.563 6584.96 C 5548.78 6573.51 5557.974 6568.357 5568.477 6567.027 C 5582.388 6565.212 5598.935 6572.289 5615.182 6585.92 C 5631.23 6599.383 5648.378 6619.742 5664.907 6644.472 C 5697.87 6693.79 5729.673 6762.268 5749.813 6833.644 C 5769.897 6908.185 5781.909 7178.546 5766.824 7234.316 C 5763.873 7244.126 5761.932 7253.101 5761.083 7259.643 C 5760.904 7261.03 5760.778 7262.237 5760.703 7263.288 Z M 6780.316 7027.62 L 6791.021 7015.895 L 6771.007 7019.898 C 6747.908 7024.782 6735.343 7029.62 6726.75 7040.159 C 6718.037 7050.848 6713.898 7066.964 6709.953 7095.683 L 6705.79 7125.417 L 6725.925 7097.102 C 6743.977 7072.033 6768.172 7040.792 6780.316 7027.62 Z M 3299.128 6771.124 C 3285.006 6706.146 3198.445 6389.272 3185.052 6350.412 C 3182.703 6352.545 3179.646 6355.561 3175.964 6359.357 C 3167.89 6367.679 3157.245 6379.313 3145.791 6392.261 L 3106.749 6438.921 L 3154.638 6559.132 C 3202.228 6675.959 3286.489 6922.396 3310.503 7012.067 C 3311.371 6997.154 3312.256 6977.627 3313.002 6954.852 C 3315.006 6879.101 3311.07 6822.737 3299.128 6771.124 Z M 6321.975 7012.474 C 6338.197 7008.527 6370.54 7000.389 6406.733 6991.163 C 6453.316 6978.622 6492.329 6968.51 6500.34 6965.125 C 6499.295 6963.731 6497.768 6962.011 6495.675 6959.871 C 6490.307 6954.381 6482.328 6947.365 6472.951 6939.963 L 6440.146 6915.36 L 6386.181 6959.858 C 6353.189 6986.351 6333.479 7002.319 6322.933 7011.624 C 6322.603 7011.915 6322.284 7012.198 6321.975 7012.474 Z M 3237.367 6974.283 C 3235.844 6969.413 3233.996 6963.616 3231.868 6957.039 C 3225 6935.81 3215.264 6906.603 3204.272 6874.625 C 3179.802 6800.213 3144.331 6704.539 3113.85 6627.464 C 3098.614 6588.936 3084.653 6555.123 3073.929 6530.916 C 3068.576 6518.833 3064.082 6509.257 3060.632 6502.664 C 3059.048 6499.636 3057.777 6497.403 3056.737 6495.822 C 3049.901 6501.543 3018.424 6536.486 2982.912 6581.114 C 2942.894 6629.135 2890.771 6690.283 2866.737 6717.322 C 2844.564 6741.32 2827.504 6764.101 2825.253 6769.978 C 2825.325 6770.01 2825.408 6770.05 2825.5 6770.099 C 2827.159 6770.98 2829.457 6771.737 2832.844 6772.496 C 2839.8 6774.055 2849.249 6775 2860 6775 C 2953.074 6775 3097.751 6843.888 3191.396 6932.329 C 3209.954 6949.148 3226.517 6964.307 3237.367 6974.283 Z M 5055.705 6941.502 C 5056.786 6940.023 5058.04 6937.939 5059.583 6935.031 C 5069.175 6916.955 5084.276 6875.863 5106.246 6808.451 C 5119.23 6770.001 5130.211 6735.06 5137.444 6709.87 C 5141.054 6697.297 5143.701 6687.263 5145.21 6680.396 C 5145.326 6679.871 5145.433 6679.371 5145.533 6678.894 C 5135.487 6685.116 5112.968 6700.602 5087.904 6718.071 C 5032.427 6758.581 5029.431 6761.885 5023.958 6806.647 C 5018.93 6844.838 5021.414 6857.961 5035.924 6875.902 C 5046.279 6889.536 5055 6912.11 5055 6926 C 5055 6933.84 5055.245 6938.751 5055.705 6941.502 Z M 4565.942 6842.922 C 4554.65 6826.352 4545 6799.847 4545 6783 C 4545 6765.69 4551.706 6746.09 4560.749 6731.492 C 4569.875 6716.76 4583.339 6705 4595 6705 C 4600.44 6705 4603.323 6704.363 4605.763 6702.374 C 4608.202 6700.386 4609.299 6697.935 4609.903 6692.224 C 4611.206 6679.902 4607.607 6659.016 4599.142 6624.182 C 4590.164 6587.268 4583.148 6562.243 4581.019 6555.611 C 4577.231 6556.341 4554.905 6560.917 4519.988 6567.901 L 4460.208 6580.044 L 4461.994 6615.75 C 4462.885 6656.08 4525.609 6861.117 4552.437 6912.696 L 4562.074 6931.967 L 4571.257 6904.419 C 4583.121 6870.23 4583.471 6866.461 4565.942 6842.922 Z M 6553.703 6930.897 C 6553.512 6929.368 6552.989 6926.714 6552.323 6922.85 C 6551.112 6915.829 6548.741 6907.017 6545.308 6897.729 C 6538.888 6877.941 6535.303 6869.227 6530.603 6866.829 C 6528.709 6865.863 6527.584 6866.003 6523.989 6867.547 C 6520.071 6869.23 6515.378 6872.338 6508.994 6877.005 C 6504.836 6880.184 6502.262 6882.294 6500.788 6884.247 C 6499.571 6885.859 6499.599 6885.553 6500.096 6886.978 C 6501.576 6891.22 6508.302 6897.246 6523.239 6910.191 C 6532.078 6917.562 6540.482 6923.557 6547.049 6927.449 C 6549.802 6929.08 6551.973 6930.203 6553.703 6930.897 Z M 4478.28 6892.597 C 4478.393 6891.604 4478.258 6890.346 4477.778 6888.056 C 4476.671 6882.773 4474.051 6875.208 4470.309 6864.73 C 4462.253 6843.561 4439.235 6773.516 4419.221 6708.47 C 4402.73 6653.5 4393.603 6624.388 4386.16 6609.626 C 4382.618 6602.599 4380.341 6599.922 4377.551 6598.591 C 4375.035 6597.392 4372.884 6597.683 4368.213 6598.851 C 4356.109 6601.877 4272.968 6618.905 4182.931 6635.913 L 4031.806 6664.654 L 4074.809 6693.864 C 4103.55 6713.707 4187.217 6757.52 4262.114 6792.469 C 4336.106 6827.465 4415.145 6864.483 4437.203 6875.511 C 4462.757 6887.816 4474.252 6893.349 4478.28 6892.597 Z M 6851.003 6643.995 C 6857.835 6634.6 6863.242 6627.015 6867.011 6621.292 C 6853.047 6631.031 6826.632 6652.268 6784.161 6686.874 L 6715 6743.372 L 6715 6865.431 L 6759.654 6788.527 C 6788.722 6736.417 6829.862 6671.196 6851.003 6643.995 Z M 6475.338 6825.767 C 6492.191 6814.866 6505 6805.984 6505 6806 C 6505 6800.145 6355.457 6509.868 6347.306 6500.371 C 6343.389 6497.527 6285.766 6504.945 6214.967 6518.906 C 6143.912 6532.916 6074.782 6544.938 6060.707 6546.95 C 6059.717 6547.028 6059.027 6547.106 6058.535 6547.196 C 6059.962 6550.056 6064.133 6554.627 6072.703 6562.268 C 6092.177 6579.634 6130.982 6608.987 6197.946 6657.96 C 6285.981 6721.986 6376.141 6790.112 6398.315 6810.257 C 6420.223 6829.178 6436.446 6842.315 6440.794 6844.875 C 6444.597 6843.76 6457.495 6836.675 6475.338 6825.767 Z M 2557.386 6782.165 C 2559.079 6778.972 2560.892 6775.516 2562.814 6771.819 C 2574.295 6749.729 2589.508 6719.305 2605.488 6685.845 C 2679.363 6532.16 2710.155 6436.809 2737.071 6284.159 C 2754.04 6181.411 2757.007 6138.907 2752.003 5980.173 C 2748.01 5874.293 2739.071 5767.808 2731.121 5731.093 C 2709.194 5636.361 2650.384 5470.909 2598.474 5359.125 C 2583.241 5327.036 2571.257 5303.124 2562.881 5287.898 C 2564.463 5292.875 2566.402 5298.678 2568.718 5305.344 C 2584.817 5350.719 2627.924 5561.142 2644.949 5679.287 C 2686.97 5963.821 2653.89 6452.883 2574.792 6718.428 C 2567.549 6743.051 2561.496 6765.499 2557.386 6782.165 Z M 6529.726 6724.661 C 6527.594 6713.852 6524.33 6700.076 6520.187 6685.354 C 6511.212 6652.439 6492.241 6591.534 6478.257 6549.581 C 6467.276 6515.139 6460.711 6496.169 6454.252 6485.762 C 6448.345 6476.245 6444.209 6475 6434 6475 C 6427.708 6475 6422.201 6475.459 6418.106 6476.278 C 6417.068 6476.485 6416.258 6476.679 6415.597 6476.878 C 6418.73 6485.032 6433.836 6517.603 6452.462 6555.743 C 6474.528 6597.889 6501.592 6659.021 6514.611 6690.066 C 6520.062 6703.487 6525.318 6715.452 6529.726 6724.661 Z M 3466.912 6705.886 C 3469.902 6694.576 3473.959 6677.403 3479.117 6653.927 C 3488.131 6614.868 3518.161 6497.741 3546.167 6392.72 L 3595.611 6204.83 L 3498.434 6050.812 L 3492.977 6101.481 C 3489.982 6136.463 3483.996 6264.179 3480.998 6385.124 C 3476.998 6506.139 3471.991 6634.284 3468.984 6670.394 C 3467.877 6685.159 3467.184 6696.968 3466.912 6705.886 Z M 6579.245 6696.392 C 6579.29 6693.744 6579.333 6690.962 6579.376 6688.053 C 6579.75 6662.196 6580 6626.493 6580 6587.018 L 6579.04 6450.731 L 6555.683 6453.953 C 6541.113 6454.772 6527.435 6457.843 6521.98 6459.764 C 6521.937 6460.825 6521.987 6462.192 6522.14 6464.061 C 6522.532 6468.855 6523.552 6475.52 6525.158 6483.798 C 6528.386 6500.43 6533.828 6522.706 6540.8 6546.6 C 6553.803 6594.609 6569.852 6654.793 6575.876 6681.895 C 6577.046 6686.963 6578.176 6691.833 6579.245 6696.392 Z M 4969.423 6486.988 C 4970.622 6484.22 4971.125 6482.707 4971.195 6481.629 C 4967.589 6480.585 4959.519 6481.477 4943.776 6483.939 L 4909.621 6489.332 L 4903.979 6550.46 C 4899.99 6586.328 4896.996 6638.144 4897 6665 C 4896.863 6671.851 4896.746 6677.715 4896.739 6682.461 C 4902.117 6669.593 4910.731 6645.788 4924.298 6608.298 C 4945.305 6550.281 4965.345 6496.188 4969.423 6486.988 Z M 4962.097 6699.012 C 4962.321 6699.172 4962.451 6699.189 4963.337 6699.317 C 4968.58 6700.071 4978.435 6697.551 4993.37 6691.492 C 5023.597 6679.228 5069.928 6653.716 5125.27 6617.811 C 5238.236 6543.834 5332.157 6480.387 5394.863 6436.043 C 5426.196 6413.885 5449.624 6396.578 5463.754 6385.103 C 5465.939 6383.329 5467.871 6381.721 5469.557 6380.275 C 5445.796 6385.134 5396.223 6395.019 5345.973 6404.904 L 5237.393 6426.62 L 5105.439 6551.63 C 5032.489 6620.581 4968.974 6683.943 4964.392 6692.389 C 4962.282 6696.134 4961.871 6697.75 4962.097 6699.012 Z M 4682.469 6682.638 C 4682.522 6682.438 4682.577 6682.216 4682.635 6681.971 C 4684.242 6675.2 4684.039 6662.521 4681.09 6645.95 C 4679.172 6636.778 4676.373 6628.67 4673.385 6622.576 C 4672.073 6619.898 4670.911 6617.953 4669.762 6616.489 C 4669.591 6617.208 4669.445 6618.087 4669.306 6619.21 C 4668.695 6624.122 4668.868 6630.783 4669.719 6638.448 C 4671.433 6653.873 4675.571 6671.115 4681.287 6680.428 C 4681.821 6681.407 4682.2 6682.119 4682.469 6682.638 Z M 3319.555 6610.054 C 3320.287 6569.997 3321.644 6493.761 3323 6406.939 L 3324.885 6188.343 L 3280.747 6238.31 L 3228.595 6295.293 L 3245.796 6353.585 C 3254.782 6386.536 3277.796 6464.585 3294.809 6526.631 C 3303.804 6557.114 3312.042 6585.074 3318.163 6605.436 C 3318.641 6607.023 3319.105 6608.563 3319.555 6610.054 Z M 6944.772 6471.181 C 6986.749 6436.201 7024.475 6403.972 7051.448 6380.246 C 7064.925 6368.391 7075.671 6358.7 7082.942 6351.834 C 7084.943 6349.944 7086.652 6348.296 7088.073 6346.885 C 7083.784 6347.213 7077.059 6348.225 7068.348 6349.639 C 7052.598 6352.194 7032.354 6356.675 7011.876 6361.966 C 6970.913 6372.549 6930.738 6385.435 6925.904 6392.123 C 6904.978 6419.023 6788.261 6585.625 6768.264 6617.611 L 6765.655 6621.96 L 6767.777 6620.177 C 6780.808 6609.151 6860.781 6542.174 6944.772 6471.181 Z M 4722.464 6525.536 C 4721.116 6524.187 4720.428 6523.686 4719.615 6523.345 C 4719.615 6523.344 4719.614 6523.344 4719.614 6523.344 C 4719.204 6523.699 4719.019 6524.564 4718.408 6527.704 C 4716.771 6536.122 4717.459 6550.914 4720.913 6571.065 L 4722.475 6578.53 L 4723.012 6570.66 C 4725.005 6547.985 4724.27 6527.341 4722.464 6525.536 Z M 5106.949 6465.07 L 5119.455 6447.56 L 5099.038 6451.891 C 5048.379 6460.196 5043.069 6465.745 5012.602 6537.954 L 4993.252 6583.994 L 5031.496 6546.433 C 5062.394 6516.538 5096.103 6479.874 5106.948 6465.07 L 5106.949 6465.07 Z M 6820.074 6422.904 L 6841.157 6395.495 L 6828.255 6398.84 C 6813.225 6401.846 6780.856 6407.926 6755.79 6411.937 L 6715 6417.378 L 6715 6586.948 L 6747.713 6532.428 C 6770.746 6494.374 6802.901 6444.158 6820.074 6422.904 Z M 4656.897 6572.984 C 4658.192 6574.327 4658.463 6574.71 4658.698 6574.777 C 4658.937 6574.415 4659.035 6574.096 4659.224 6573.076 C 4659.727 6570.354 4659.595 6566.804 4658.166 6561.277 C 4656.799 6556.163 4654.879 6551.968 4652.634 6548.714 C 4650.528 6545.66 4649.917 6545 4649 6545 C 4646.37 6545 4645.553 6544.591 4645.337 6544.387 C 4645.352 6544.451 4645.359 6544.545 4645.344 6544.677 C 4645.085 6547.011 4646.708 6551.819 4650.672 6562.22 C 4652.718 6567.562 4654.776 6570.783 4656.897 6572.984 Z M 4034.363 6411.569 C 4085.298 6358.639 4125 6314.337 4125 6312 C 4125 6308.802 4100.625 6285.688 4069.711 6257.767 C 4037.565 6230.629 3949.552 6148.62 3873.512 6074.582 C 3836.046 6037.616 3801.343 6004.66 3775.63 5981.193 C 3762.785 5969.471 3752.247 5960.173 3744.71 5953.907 C 3741.782 5951.473 3739.381 5949.556 3737.48 5948.136 C 3732.356 5963.16 3717.073 6014.589 3700.83 6075.293 L 3666.459 6200.992 L 3706.034 6255.046 C 3728.988 6286.984 3784.939 6359.921 3831.911 6418.885 C 3866.87 6463.833 3888.431 6490.104 3902.974 6504.154 C 3910.093 6511.032 3914.887 6514.497 3918.943 6516.049 C 3922.479 6517.402 3923.924 6517.352 3926.519 6515.659 C 3935.907 6511.091 3984.451 6464.48 4034.363 6411.569 Z M 4169.932 6238.545 C 4175.141 6232.903 4190.818 6207.251 4212.696 6170.455 C 4252.778 6102.326 4271.678 6074.506 4274.913 6048.385 C 4278.119 6022.501 4265.935 5998.028 4241.35 5935.838 C 4218.336 5875.8 4168.296 5738.694 4130.288 5631.673 C 4093.3 5524.707 4055.369 5419.884 4046.41 5398.984 L 4032.598 5367.296 L 3926.79 5490.261 L 3815.558 5617.384 L 3784.852 5740.208 L 3754.528 5862.484 L 3825.558 5934.487 C 3869.468 5978.9 3954.338 6056.527 4029.425 6122.494 C 4066.964 6155.473 4101.992 6185.479 4128.214 6206.943 C 4141.311 6217.664 4152.125 6226.185 4159.971 6231.895 C 4163.863 6234.727 4166.863 6236.755 4169.077 6238.043 C 4169.494 6238.285 4169.764 6238.444 4169.932 6238.545 Z M 6260.03 6132.96 L 6284.295 6100.295 L 6234.381 5979.915 C 6206.373 5911.896 6167.359 5814.861 6147.358 5764.857 C 6137.38 5739.411 6127.665 5716.247 6120.069 5699.434 C 6116.279 5691.048 6113.067 5684.349 6110.6 5679.706 C 6110.478 5679.476 6110.359 5679.254 6110.243 5679.038 C 6108.326 5683.219 6105.902 5689.185 6103.046 5696.66 C 6097.194 5711.975 6089.734 5733.108 6081.75 5756.563 L 6055.42 5839.453 L 6146.359 6002.55 C 6197.349 6092.532 6227.236 6144.637 6237.544 6162.637 C 6240.876 6157.929 6245.065 6151.918 6260.03 6132.96 Z M 3601.049 6105.478 C 3605.053 6111.067 3607.998 6114.424 3610.656 6116.201 C 3611.807 6116.97 3612.061 6117.074 3612.749 6117.118 C 3613.348 6117.157 3613.096 6117.227 3613.819 6116.737 C 3623.274 6110.325 3631.645 6071.811 3654.17 5987.706 L 3682.401 5883.544 L 3655.553 5857.622 C 3647.636 5850.199 3640.372 5843.906 3634.778 5839.771 C 3632.403 5838.015 3630.585 5836.819 3629.151 5836.077 C 3623.001 5843.114 3598.578 5872.096 3570.835 5905.209 L 3517.138 5969.453 L 3567.259 6051.38 C 3582.296 6075.693 3592.896 6094.102 3601.049 6105.478 Z M 5198.531 6070.022 C 5283.533 6062.022 5358.768 6055 5367 6055 C 5367.962 6055 5368.597 6055.125 5369 6055.282 C 5368.952 6055.157 5368.908 6055.008 5368.869 6054.835 C 5368.035 6051.083 5364.312 6044.722 5356.903 6033.866 C 5326.484 5991.6 5321.022 5929.951 5334.026 5803.487 C 5343.519 5715.071 5346.605 5673.093 5356.671 5653.354 C 5362.083 5642.741 5370.694 5637.49 5381.39 5635.796 C 5391.692 5634.164 5405.155 5635 5423 5635 C 5558.678 5635 5670.25 5666.649 5744.143 5726.111 L 5773.228 5749.541 L 5779.034 5706.409 C 5782.02 5677.498 5785.001 5584.919 5785 5498 L 5785 5353.541 L 5761.42 5375.648 C 5694.442 5438.215 5578.753 5473.89 5446.038 5475 L 5377 5475 L 5371.717 5475 L 5379.008 5342.725 C 5387.042 5201.432 5405.25 5098.578 5435.422 5030.99 L 5451.17 4994.521 L 5367.325 4999.989 C 5284.853 5004.988 5225.655 5009.234 5187.076 5012.73 C 5167.812 5014.475 5153.795 5016.022 5144.557 5017.384 C 5141.225 5017.875 5138.625 5018.323 5136.639 5018.742 C 5139.659 5022.821 5146.542 5030.741 5154.638 5039.569 C 5211.257 5097.861 5242.936 5247.699 5229.982 5396.427 L 5222.666 5483.166 L 5183.981 5490.903 C 5132.321 5500.943 4963.112 5488.891 4905.538 5470.782 C 4878.202 5462.648 4838.61 5444.379 4816.316 5430.218 C 4800.212 5419.482 4786.027 5410.35 4780.025 5406.7 C 4779.679 5408.738 4779.329 5411.323 4778.967 5414.451 C 4777.976 5422.996 4776.99 5434.819 4775.992 5448.296 C 4772.956 5516.586 4746.884 5710.012 4735.812 5749.357 C 4733.339 5757.758 4731.372 5765.627 4730.141 5771.416 C 4730.109 5771.564 4730.078 5771.71 4730.048 5771.855 C 4739.474 5766.638 4758.806 5755.408 4780.325 5741.776 C 4876.968 5684.507 5027.367 5645.082 5153 5645 L 5217.005 5645 L 5208.919 5688.895 C 5184.739 5823.47 5121.101 5965.735 5054.638 6036.43 C 5026.21 6066.351 5011.52 6083.203 5007.819 6091.531 C 5007.66 6091.889 5007.534 6092.167 5007.435 6092.382 C 5010.116 6092.631 5014.669 6091.884 5021.809 6090.144 C 5034.203 6087.08 5113.483 6078.027 5198.531 6070.022 Z M 6321.125 5848.112 C 6296.65 5741.711 6251.19 5575.615 6210.578 5437.41 C 6190.274 5368.314 6171.206 5306.271 6156.582 5262.167 C 6149.277 5240.135 6143.12 5222.691 6138.469 5211.064 C 6138.01 5209.917 6137.57 5208.836 6137.148 5207.82 C 6137.918 5218.531 6140.276 5235.729 6143.914 5255.075 C 6157.956 5329.539 6157.963 5427.431 6143.925 5507.862 L 6133.178 5569.416 L 6213.61 5761.065 C 6257.61 5866.065 6301.578 5970.988 6310.615 5993.075 L 6323.154 6022.579 L 6333.448 5999.931 C 6348.197 5971.298 6347.074 5962.801 6321.125 5848.112 Z M 7674.751 5869.2 C 7815.939 5751.056 7947.467 5660.704 8052.772 5608.524 L 8102.421 5583.699 L 7963.16 5587.997 C 7873.298 5590.989 7794.537 5597.866 7786.428 5602.371 C 7778.053 5607.024 7735.667 5650.396 7692.758 5699.298 C 7637.945 5761.059 7609.442 5802.17 7598.77 5836.499 C 7589.676 5864.745 7566.534 5917.105 7548.496 5954.187 C 7536.066 5979.046 7527.381 5997.113 7522.235 6008.982 C 7523.715 6007.159 7525.324 6005.137 7527.065 6002.916 C 7538.363 5988.598 7605.707 5928.238 7674.751 5869.2 Z M 4321.901 5943.935 C 4321.992 5943.988 4322.062 5944.039 4322.114 5944.086 C 4322.16 5943.881 4322.313 5943.562 4322.682 5943.093 C 4324.535 5940.741 4326.269 5936.658 4328.153 5929.771 C 4330.559 5919.386 4330.011 5902.715 4327.687 5888.032 C 4326.531 5880.733 4325.008 5874.47 4323.158 5869.865 C 4322.268 5867.652 4321.561 5866.334 4320.732 5865.327 C 4320.632 5865.206 4320.557 5865.105 4320.502 5865.023 C 4315.38 5865.259 4312.018 5866.123 4308.884 5867.956 C 4305.862 5869.725 4304.353 5871.555 4303.076 5875.078 C 4300.316 5882.695 4301.378 5894.017 4306.772 5911.508 C 4313.132 5931.652 4317.969 5941.634 4321.901 5943.935 Z M 6394.136 5816.446 C 6396.394 5818.525 6397.248 5818.989 6398.453 5819.002 C 6399.44 5819.013 6399.171 5819.136 6400.306 5817.387 C 6403.229 5812.882 6405 5803.532 6405 5787 C 6405 5758.822 6402.655 5740.718 6397.125 5729.305 C 6391.887 5718.495 6385.311 5715 6373 5715 C 6362.31 5715 6359.111 5715.098 6357.66 5717.273 C 6356.09 5719.628 6356.898 5724.026 6359.849 5735.781 C 6370.691 5778.834 6383.837 5806.966 6394.136 5816.446 Z M 3703.18 5809.127 C 3705.642 5802.018 3711.818 5777.112 3718.149 5751.787 C 3721.975 5737.923 3725.124 5725.157 3727.238 5715.691 C 3721.845 5722.607 3714.021 5732.474 3704.938 5744.082 C 3688.976 5763.534 3681.617 5772.928 3679.985 5779.676 C 3678.577 5785.496 3681.3 5788.253 3689.72 5797.659 C 3694.481 5802.924 3698.894 5806.649 3702.386 5808.676 C 3702.689 5808.852 3702.952 5809.002 3703.18 5809.127 Z M 4299.853 5809.225 C 4302.204 5805.247 4297.165 5781.236 4288.249 5753.557 C 4280.798 5731.195 4276.138 5719.306 4271.36 5713.392 C 4269.245 5710.773 4268.129 5710.066 4265.949 5709.669 C 4263.674 5709.256 4261.352 5709.617 4257.411 5710.797 C 4249.869 5713.059 4244.776 5714.489 4241.405 5716.216 C 4238.409 5717.751 4238.026 5718.094 4237.708 5720.525 C 4236.864 5726.959 4241.684 5739.253 4251.709 5767.318 C 4257.63 5784.123 4263.13 5796.301 4268.641 5804.448 C 4273.925 5812.259 4277.486 5815 4282 5815 C 4290.072 5815 4297.693 5812.319 4299.853 5809.225 Z M 4405 5703 L 4405 5674.035 L 4373.932 5679.912 C 4353.915 5683.724 4338.018 5687.173 4336.633 5687.509 C 4337.099 5687.673 4338.082 5691.531 4340.246 5700.871 C 4342.599 5711.027 4346.306 5724.624 4350.789 5739.563 L 4364.184 5784.77 L 4382.204 5763.746 C 4397.711 5746.586 4405.139 5725.179 4405 5703 Z M 6379.956 5661.478 C 6381.998 5659.273 6381.965 5657.707 6380.257 5652.581 C 6377.235 5643.516 6367.207 5610.422 6358.198 5579.394 C 6350.27 5550.615 6344.53 5535.4 6337.711 5529.028 C 6334.72 5526.233 6332.858 5525.695 6329.008 5526.273 C 6324.84 5526.899 6320.16 5529.121 6313.664 5533.231 C 6307.934 5536.489 6306.582 5538.706 6307.116 5547.574 C 6307.712 5557.464 6311.816 5573.157 6319.798 5600.591 C 6331.816 5641.157 6336.588 5659.328 6341.831 5666.737 C 6343.962 5669.747 6344.662 5670.02 6347.851 5669.985 C 6351.45 5669.945 6356.364 5668.633 6364.019 5667.097 C 6373.032 5665.726 6377.593 5664.03 6379.956 5661.478 Z M 4214.386 5659.055 C 4217.965 5660.088 4222.302 5660.426 4227.466 5660.133 C 4237.918 5659.539 4248.604 5656.72 4254.676 5651.267 C 4254.859 5650.113 4253.966 5646.079 4252.174 5635.069 C 4250.366 5623.956 4247.314 5609.684 4243.771 5595.323 C 4236.682 5566.597 4228.9 5539.432 4225.572 5538.371 C 4221.858 5535.727 4207.606 5535.925 4192.213 5539.851 L 4168.781 5544.703 L 4186.667 5591.205 C 4196.641 5620.133 4207.741 5649.427 4209.808 5656.626 C 4209.835 5658.144 4211.038 5658.09 4214.386 5659.055 Z M 7984.078 5335.942 C 8020.015 5310.988 8042.03 5294.663 8053.562 5283.744 C 8059.155 5278.449 8061.616 5275.269 8062.388 5272.822 C 8062.657 5271.971 8062.679 5272.477 8062.531 5272.15 C 8062.367 5271.784 8062.532 5271.845 8061.513 5271.335 C 8053.704 5266.712 7983.715 5274.946 7876.878 5293.922 C 7781.831 5310.93 7693.393 5324.969 7679 5325 L 7659.038 5325 L 7660 5452.962 C 7659.997 5525.092 7655.974 5602.625 7651.903 5622.981 C 7650.687 5629.063 7649.929 5633.06 7649.83 5635.361 C 7651.222 5634.646 7653.046 5633.439 7655.62 5631.504 C 7670.981 5619.953 7702.486 5588.943 7763.479 5528.45 C 7834.595 5458.343 7933.9 5372.084 7984.078 5335.942 Z M 6440.995 5638.398 C 6441.539 5635.318 6442.052 5631.581 6442.529 5627.208 C 6444.014 5613.597 6445 5594.869 6445 5574 C 6445 5537.033 6444.767 5519.111 6442.132 5511.206 C 6441.573 5509.529 6441.327 5509.099 6440.767 5508.573 C 6440.351 5508.182 6440.669 5508.317 6439.863 5508.247 C 6437.762 5508.064 6434.786 5509.008 6429.581 5510.743 C 6416.873 5513.657 6409.129 5516.287 6407.014 5517.247 C 6407.337 5517.635 6407.402 5516.627 6407.907 5520.314 C 6408.435 5524.169 6409.458 5529.451 6410.881 5535.853 C 6413.737 5548.705 6418.076 5565.44 6422.81 5582.136 C 6427.545 5598.831 6432.624 5615.308 6436.967 5627.653 C 6438.429 5631.811 6439.778 5635.422 6440.995 5638.398 Z M 4382.84 5613.227 L 4383.139 5612.458 L 4383.464 5612.464 C 4384.746 5612.489 4381.065 5585.761 4374.103 5552.008 C 4368.615 5522.571 4365.602 5508.345 4361.181 5502.156 C 4359.372 5499.623 4358.626 5499.277 4355.776 5499.185 C 4352.578 5499.082 4348.523 5500.085 4342.348 5501.815 C 4312.278 5508.83 4299.876 5510.974 4295.995 5518.94 C 4292 5527.139 4296.781 5541.537 4306.797 5575.589 L 4323.408 5632.804 L 4349.606 5625.198 C 4367.397 5620.266 4382.042 5615.272 4382.84 5613.227 Z M 4444.02 5600.257 C 4444.618 5591.015 4445 5579.128 4445 5566 C 4445 5529.531 4440.509 5508.58 4430.464 5498.536 C 4426.396 5494.467 4422.508 5491.185 4419.322 5488.947 C 4420.029 5492.12 4421.132 5497.363 4422.376 5504.377 C 4424.692 5517.433 4428.201 5534.448 4432.004 5551.406 C 4435.807 5568.363 4439.873 5585.126 4443.307 5597.681 C 4443.549 5598.563 4443.786 5599.423 4444.02 5600.257 Z M 8411.448 5553.424 C 8411.83 5553.478 8412.182 5553.541 8412.507 5553.613 C 8400.079 5542.642 8342.638 5495.42 8272.858 5438.889 C 8200.868 5380.898 8164.911 5352.131 8143.471 5339.563 C 8133.07 5333.466 8127.181 5331.581 8121.718 5331.717 C 8116.488 5331.847 8112.249 5333.964 8105.294 5337.443 C 8075.56 5353.291 8006.273 5403.984 7945.218 5452.054 C 7914.697 5476.084 7886.402 5499.336 7866.268 5517.165 C 7856.224 5526.06 7848.348 5533.477 7843.214 5538.985 C 7842.027 5540.26 7841.037 5541.371 7840.222 5542.348 C 7852.615 5541.411 7894.796 5536.627 7945.258 5529.055 C 8064.675 5512.031 8223.566 5516.052 8341.005 5540.102 C 8382.016 5548.104 8401.84 5552.069 8411.448 5553.424 Z M 4159.074 5490.431 C 4162.388 5493.014 4164.865 5493.404 4170.066 5492.55 C 4175.589 5491.644 4182.479 5489.074 4192.205 5485.333 L 4212.908 5477.879 L 4196.192 5419.374 C 4188.207 5388.926 4183.978 5374.077 4178.546 5367.061 C 4176.149 5363.965 4174.482 5363.047 4170.939 5362.465 C 4167.161 5361.844 4162.476 5362.227 4155.548 5362.97 C 4142.393 5364.458 4132.878 5365.877 4126.087 5368.2 C 4119.649 5370.401 4117.152 5372.294 4115.721 5376.397 C 4112.477 5385.697 4118.189 5402.269 4131.637 5436.131 C 4145.124 5469.097 4151.541 5484.56 4159.074 5490.431 Z M 6333.34 5481.2 C 6333.296 5480.616 6333.22 5479.901 6333.104 5478.999 C 6332.683 5475.739 6331.846 5471.163 6330.612 5465.426 C 6328.131 5453.891 6324.179 5438.321 6319.203 5421.411 C 6311.215 5392.454 6306.991 5378.095 6301.925 5371.565 C 6299.747 5368.759 6298.573 5368.147 6295.582 5367.887 C 6292.316 5367.603 6288.357 5368.375 6282.272 5369.837 C 6269.559 5373.469 6258.726 5376.75 6256.828 5377.418 C 6257.727 5377.569 6258.912 5382.224 6261.138 5392.574 C 6263.627 5404.145 6267.349 5419.781 6271.834 5436.721 C 6279.322 5466.175 6283.296 5480.719 6288.233 5487.228 C 6290.326 5489.987 6291.349 5490.501 6294.277 5490.664 C 6297.513 5490.844 6301.507 5489.908 6307.652 5488.185 C 6319.403 5485.675 6329.897 5482.837 6333.34 5481.2 Z M 8573.105 5209.98 L 8581.324 5174.633 L 8558.101 5179.877 C 8540.155 5182.868 8465.892 5196.919 8392.844 5208.928 C 8330.315 5220.063 8277.551 5229.959 8263.312 5233.386 C 8264.72 5235.104 8266.573 5237.239 8268.888 5239.811 C 8275.448 5247.1 8285.277 5257.394 8297.687 5269.991 C 8322.53 5295.208 8357.469 5329.4 8396.441 5366.373 L 8530.372 5493.654 L 8546.046 5379.321 C 8556.051 5310.29 8568.083 5234.1 8573.105 5209.98 Z M 4336.269 5442.409 C 4342.698 5438.735 4345 5436.732 4345 5435 C 4345 5427.425 4340.111 5399.031 4333.149 5371.213 L 4322.214 5324.739 L 4286.862 5330.925 C 4264.145 5333.872 4245.626 5338.445 4244.536 5339.536 C 4244.931 5339.14 4245.937 5344.184 4248.397 5356.115 C 4250.878 5368.147 4254.831 5384.216 4259.808 5401.626 L 4275.56 5460.925 L 4309.758 5452.157 C 4320.415 5449.761 4329.598 5446.221 4336.269 5442.409 Z M 6430.623 5461.621 C 6433.987 5459.543 6435 5458.113 6435 5455 C 6435 5448.411 6430.09 5418.935 6424.111 5391.048 C 6419.651 5369.71 6416.42 5358.161 6411.998 5351.698 C 6408.03 5345.899 6404.326 5345 6395 5345 C 6386.739 5345 6381.236 5345.524 6377.222 5347.183 C 6373.549 5348.702 6372.341 5350.054 6371.364 5354.158 C 6369.114 5363.608 6372.85 5380.795 6381.813 5412.646 C 6388.268 5436.497 6392.745 5449.701 6397.965 5457.124 C 6402.709 5463.871 6406.735 5465 6416 5465 C 6422.394 5465 6427.018 5463.847 6430.623 5461.621 Z M 4421.087 5419.698 C 4422.215 5413.717 4421.55 5405.152 4419.084 5391.91 C 4402.092 5291.959 4343.261 4982.831 4337.152 4956.226 L 4332.249 4938.454 L 4316.266 4964.607 C 4294.633 4999.304 4294.772 4998.956 4311.543 5034.913 C 4320.649 5056.211 4328.951 5085.131 4329.987 5099.644 C 4330.964 5113.313 4347.877 5194.899 4368.857 5280.814 C 4383.846 5342.271 4394.039 5381.053 4401.855 5403.88 C 4405.721 5415.169 4408.77 5422.012 4411.537 5425.927 C 4412.749 5427.643 4413.235 5428.116 4413.929 5428.45 C 4413.93 5428.449 4413.93 5428.449 4413.931 5428.448 C 4418.396 5427.16 4420.07 5425.086 4421.087 5419.698 Z M 4499 5159.972 C 4499.004 5052.141 4493.036 4957.56 4482.062 4886.788 C 4473.46 4834.31 4465.878 4791.203 4463.303 4779.599 C 4461.209 4781.223 4458.596 4783.553 4455.478 4786.545 C 4448.217 4793.513 4439.022 4803.354 4429.888 4813.793 C 4411.614 4834.677 4395 4856.027 4395 4860 C 4395 4864.593 4412.927 4973.151 4435.921 5101.116 C 4457.921 5229.112 4478.91 5350.057 4482.893 5368.97 L 4484.913 5380.733 L 4489.137 5363.836 C 4494.071 5342.181 4498.002 5250.882 4499 5159.972 Z M 6289.526 5321.054 C 6292.288 5318.723 6292.61 5317.292 6291.254 5312.572 C 6288.198 5303.379 6281.161 5275.256 6274.172 5249.3 C 6268.723 5225.49 6265.366 5214.439 6259.087 5209.939 C 6253.047 5205.61 6244.651 5207.359 6225.438 5212.789 L 6208.252 5218.258 L 6225.774 5274.513 C 6234.754 5303.952 6239.388 5317.906 6245.101 5324.291 C 6250.133 5329.914 6254.918 5329.035 6269.317 5327.047 C 6280.399 5325.638 6286.27 5323.801 6289.526 5321.054 Z M 4162.528 5313.764 L 4164.229 5315.285 L 4163.464 5312.464 C 4163.748 5313.508 4162.301 5308.988 4160.461 5299.171 C 4158.603 5289.263 4155.636 5276.158 4152.149 5262.213 L 4141.524 5219.713 L 4110.836 5256.207 C 4087.147 5284.742 4077.739 5302.925 4080.24 5313.471 C 4081.331 5318.071 4083.818 5320.041 4090.838 5321.677 C 4098.356 5323.43 4108.758 5323.29 4123.172 5321.069 C 4145.099 5317.083 4163.274 5314.431 4162.528 5313.764 Z M 6402.966 5302.468 C 6405.01 5300.273 6404.099 5296.464 6401.141 5284.181 C 6388.64 5233.176 6382.822 5208.912 6376.321 5197.92 C 6373.429 5193.03 6371.734 5191.884 6368.009 5191.338 C 6363.997 5190.75 6358.826 5191.681 6350.772 5192.94 C 6342.873 5193.925 6335.466 5195.158 6330.108 5196.376 C 6328.312 5196.784 6326.851 5197.161 6325.676 5197.522 C 6326.979 5202.139 6330.042 5212.57 6333.772 5224.509 C 6338.795 5240.58 6345.84 5265.777 6348.898 5281.994 C 6351.237 5292.463 6353.452 5297.442 6357.941 5300.706 C 6362.518 5304.035 6368.886 5305 6381 5305 C 6395.339 5305 6400.76 5304.837 6402.966 5302.468 Z M 4234.192 5294.998 C 4239.887 5294.889 4260 5290.096 4279.724 5285.165 L 4311.083 5276.454 L 4295.131 5205.138 C 4285.155 5164.235 4275.595 5129.666 4273.464 5127.536 C 4271.906 5125.977 4267.704 5125.954 4259.514 5127.194 C 4251.142 5128.461 4241.101 5131.262 4231.102 5134.942 C 4221.105 5138.622 4211.731 5142.967 4204.698 5147.364 C 4197.835 5151.655 4195 5154.053 4195 5156 C 4195 5172.442 4203.085 5207.715 4212.66 5239.299 C 4217.443 5255.077 4222.509 5269.63 4227.081 5280.314 C 4229.347 5285.609 4231.358 5289.675 4233.17 5292.524 C 4234.554 5294.7 4234.482 5294.969 4234.192 5294.998 Z M 7599.427 5255.033 C 7651.33 5250.044 7732.244 5239.057 7779.161 5231.071 C 7826.161 5223.071 8014.165 5191.07 8198.169 5160.069 C 8382.115 5129.079 8542.62 5095.294 8557.03 5092.404 C 8567.711 5090.262 8579.955 5090.39 8578.903 5083.921 C 8576.658 5070.114 8549.296 5074.98 8533.02 5076.607 C 8481.89 5081.72 8380.98 5088.447 8234.522 5112.44 C 8068.499 5140.444 7845.773 5187.194 7735.764 5204.195 C 7625.762 5221.196 7521.815 5247.933 7504.869 5250.924 C 7487.711 5252.675 7454.524 5266.172 7473.876 5271.128 C 7491 5268.109 7547.403 5261.036 7599.427 5255.033 Z M 6334.97 4752.732 C 6364.796 4853.24 6414.962 5062.438 6435.649 5168.037 C 6433.132 5146.983 6429.852 5121.696 6426.053 5094.725 C 6409.971 4989.217 6363.646 4817.735 6334.97 4752.732 Z M 6253.904 5161.19 C 6253.209 5159.64 6252.564 5158.301 6250.581 5147.394 C 6248.588 5136.438 6245.61 5121.544 6242.121 5105.096 L 6229.122 5050.313 L 6194.428 5052.982 C 6176.924 5054.646 6162.047 5056.758 6157.771 5057.365 C 6157.898 5057.723 6158.032 5058.285 6158.193 5059.125 C 6158.822 5062.424 6159.957 5066.963 6161.562 5072.64 C 6164.787 5084.052 6169.737 5099.4 6175.715 5116.336 C 6185.707 5146.313 6190.592 5160.564 6196.506 5166.813 C 6199.09 5169.542 6200.862 5170.224 6204.806 5170.379 C 6209.031 5170.545 6214.33 5169.585 6222.05 5168.091 C 6239.817 5165.142 6249.241 5162.615 6253.904 5161.19 Z M 6325.715 5152.76 C 6329.348 5155.267 6332.457 5155.897 6337.407 5155.163 C 6342.593 5154.395 6348.177 5152.081 6355.293 5147.794 C 6358.812 5145.202 6360.029 5142.312 6360.252 5133.622 C 6360.491 5124.277 6358.574 5110.346 6354.104 5088.015 C 6348.107 5060.029 6345.389 5046.982 6340.333 5040.607 C 6335.771 5034.855 6329.927 5035 6313 5035 C 6298.72 5035 6291.713 5035.587 6288.559 5037.593 C 6287.519 5038.255 6287.804 5037.754 6287.763 5039.023 C 6287.709 5040.682 6288.234 5042.668 6289.642 5046.143 C 6292.681 5055.269 6300.846 5084.777 6306.876 5111.894 C 6312.214 5134.905 6317.896 5147.363 6325.715 5152.76 Z M 7611.928 5122.985 L 7610.764 5123.528 C 7616.052 5121.06 7642.186 5092.774 7669.034 5057.955 C 7694.948 5024.075 7715.505 4995.204 7714.149 4993.213 C 7711.98 4974.727 7279.966 4598.962 7189.216 4538.153 C 7181.064 4531.584 7153.99 4523.883 7131.353 4520.958 L 7101.121 4516.15 L 7160.724 4582.663 C 7197.552 4624.487 7240.837 4664.942 7255.309 4672.565 C 7298.951 4695.05 7431.794 4824.776 7479.093 4892.129 C 7521.228 4952.344 7574.522 5047.899 7594.678 5101.235 C 7596.943 5108.706 7600.513 5114.717 7604.385 5118.817 C 7608.046 5122.693 7609.931 5124.36 7611.626 5123.192 L 7611.928 5122.985 Z M 4240.763 5084.951 C 4244.783 5084.438 4249.08 5079.938 4252.4 5073.028 C 4254.367 5067.804 4255.226 5064.138 4255.4 5061.357 C 4255.231 5061.512 4255.039 5061.684 4254.822 5061.876 C 4252.352 5064.053 4249.552 5067.41 4246.233 5072.661 C 4242.583 5078.532 4241.045 5082.335 4240.763 5084.951 Z M 6205.094 5006.931 C 6209.803 5004.237 6211.216 5001.773 6211.002 4993.632 C 6210.764 4984.614 6207.651 4970.713 6201.181 4947.333 C 6193.209 4915.437 6187.086 4893.906 6184.939 4889.301 C 6181.149 4889.032 6167.56 4889.96 6144.857 4893.926 L 6110.372 4899.1 L 6126.796 4956.587 C 6135.265 4984.486 6140.226 4999.148 6146.028 5007.038 C 6151.288 5014.191 6156.007 5015 6168 5015 C 6182.458 5015 6199.005 5011.525 6205.094 5006.931 Z M 2910.426 5003.625 C 2916.445 5003.686 2920.876 5003.432 2923.936 5002.877 C 2924.199 5002.829 2924.432 5002.785 2924.64 5002.743 C 2919.844 4982.112 2867.978 4853.355 2819.415 4740.994 L 2765.013 4616.647 L 2736.951 4621.909 C 2671.988 4634.904 2335.505 4717.717 2318.194 4725.171 C 2318.873 4726.95 2321.144 4731.387 2327.569 4745.844 C 2334.033 4760.389 2343.45 4779.721 2354.409 4800.641 L 2394.485 4873.951 L 2474.708 4903.301 C 2607.535 4951.245 2681.048 4972.121 2760.732 4984.054 C 2801.752 4990.057 2846.738 4997.055 2860.707 4999.05 C 2881.059 5002.033 2898.239 5003.502 2910.426 5003.625 Z M 3025.669 5004.112 C 3026.196 5003.802 3025.873 5004.208 3026.097 5003.457 C 3026.414 5002.393 3026.457 5001.231 3026.16 4998.712 C 3024.851 4987.645 3016.797 4965.196 3000.3 4919.705 C 2982.314 4868.745 2947.321 4774.762 2924.315 4711.747 C 2904.338 4659.307 2893.014 4630.997 2883.48 4615.352 C 2874.505 4600.623 2868.772 4598.3 2856.427 4596.967 C 2849.35 4595.987 2843.415 4596.228 2838.999 4597.247 C 2837.026 4597.702 2835.968 4598.105 2835.106 4598.679 C 2837.031 4607.099 2864.855 4675.98 2898.599 4755.037 C 2933.616 4837.077 2970.655 4928.179 2980.702 4956.3 C 2988.137 4976.637 2993.579 4988.932 2999.227 4996.345 C 3004.494 5003.257 3008.507 5005 3016 5005 C 3021.462 5005 3024.155 5005.002 3025.669 5004.112 Z M 3110.059 5004.669 C 3110.591 5004.279 3110.564 5004.309 3110.936 5002.546 C 3111.874 4998.1 3111.342 4990.167 3108.702 4975.246 C 3103.356 4945.038 3089.65 4889.716 3064.154 4789.23 L 3009.178 4570.309 L 2974.428 4572.982 C 2957.637 4574.578 2943.046 4576.366 2938.219 4577.156 C 2938.327 4577.602 2938.457 4578.102 2938.609 4578.667 C 2939.547 4582.147 2941.118 4587.041 2943.224 4593.111 C 2947.451 4605.295 2953.646 4621.651 2960.62 4639.087 C 2975.686 4674.27 3008.712 4766.329 3035.718 4843.346 C 3062.72 4920.351 3086.659 4989.194 3089.596 4996.03 C 3089.92 4997.984 3092.154 4999.88 3095.839 5001.831 C 3099.632 5003.839 3103.687 5005 3108 5005 C 3109.523 5005 3109.595 5005.008 3110.059 5004.669 Z M 3272.484 4992.882 C 3272.486 4992.858 3272.487 4992.832 3272.489 4992.803 C 3272.55 4991.879 3272.54 4990.58 3272.458 4988.685 C 3272.29 4984.816 3271.833 4979.331 3271.15 4972.498 C 3269.78 4958.797 3267.536 4940.101 3265.037 4919.605 C 3260.022 4878.488 3252.008 4770.266 3249.003 4678.163 C 3247.006 4630.222 3244.266 4588.412 3241.275 4558.498 C 3239.782 4543.572 3238.248 4531.789 3236.712 4523.68 C 3235.988 4519.855 3235.327 4517.12 3234.67 4515.217 C 3224.381 4516.543 3186.515 4523.777 3144.999 4531.899 C 3112.116 4538.873 3091.835 4544.006 3080.173 4548.865 C 3074.573 4551.199 3071.833 4552.943 3070.27 4554.885 C 3069.043 4556.41 3068.855 4556.498 3069.743 4558.419 C 3071.742 4566.413 3096.851 4665.787 3124.853 4778.797 C 3152.849 4891.781 3177.826 4989.695 3179.808 4996.626 L 3179.157 4994.35 L 3179.642 4996.143 C 3180.679 4999.973 3182.904 5000.899 3189.91 5001.654 C 3197.565 5002.478 3208.939 5001.534 3226.293 4999.05 C 3253.074 4996.081 3271.219 4993.697 3272.484 4992.882 Z M 6333.119 4992.324 C 6335.445 4989.678 6334.101 4984.503 6331.104 4969.018 C 6327.093 4950.958 6321.087 4920.925 6318.076 4903.869 C 6316.175 4891.279 6313.85 4884.315 6310.112 4880.043 C 6306.623 4876.055 6302.8 4875 6295 4875 C 6282.346 4875 6273.139 4875.354 6266.367 4876.837 C 6259.938 4878.246 6257.244 4879.803 6255.288 4883.475 C 6250.893 4891.729 6253.885 4907.443 6261.848 4939.776 C 6269.336 4968.728 6272.999 4982.323 6278.685 4989.012 C 6283.856 4995.096 6290.071 4995 6307 4995 C 6324.429 4995 6330.702 4995.075 6333.119 4992.324 Z M 3523.464 4962.464 C 3523.382 4962.547 3578.036 4532.403 3590.032 4426.438 L 3596.213 4374.339 L 3570.061 4379.886 C 3552.212 4383.849 3521.523 4392.761 3501.652 4399.719 L 3469.963 4410.584 L 3467 4694.043 L 3465.043 4975.779 L 3490.924 4970.117 C 3508.856 4966.133 3523.374 4962.555 3523.464 4962.464 Z M 3724.787 4922.149 C 3749.149 4916.188 3770.891 4909.514 3786.503 4903.69 C 3794.261 4900.796 3800.262 4898.212 3804.355 4896.016 C 3805.938 4895.167 3807.009 4894.515 3807.785 4893.936 C 3802.475 4859.089 3799.508 4837.275 3798.883 4826.54 C 3798.719 4823.718 3798.71 4821.326 3798.877 4819.733 C 3798.974 4818.809 3799.235 4817.584 3799.56 4816.814 C 3800.071 4815.603 3802.395 4813.441 3804.161 4813.248 C 3805.757 4813.074 3808.144 4814.244 3808.947 4815.027 C 3809.506 4815.572 3810.189 4816.479 3810.661 4817.233 C 3810.692 4817.282 3810.724 4817.333 3810.755 4817.384 C 3808.483 4808.04 3804.96 4796.105 3800.278 4782.643 C 3792.333 4759.802 3755.42 4673.006 3718.44 4590.05 L 3657.763 4456.205 L 3651.964 4502.602 C 3647.947 4536.716 3632.938 4631.786 3619.937 4712.792 C 3605.954 4793.673 3595 4882.307 3595 4910 C 3595 4933.95 3595.192 4945.123 3597.768 4949.862 C 3598.663 4951.51 3598.451 4951.345 3600.688 4951.408 C 3603.391 4951.484 3607.062 4950.644 3612.738 4949.162 C 3625.727 4946.164 3676.821 4934.141 3724.787 4922.149 Z M 7171.575 4884.207 C 7210.719 4873.633 7233.214 4856.324 7241.266 4832.64 C 7249.336 4808.904 7242.502 4780.021 7218.902 4744.866 C 7202.945 4722.936 7151.25 4661.305 7102.33 4608.396 C 7070.878 4574.447 7048.323 4551.397 7032.856 4538.033 C 7025.217 4531.433 7019.783 4527.547 7015.78 4525.749 C 7014.317 4525.092 7013.693 4524.887 7013.144 4524.87 C 6997.904 4547.423 6917.958 4886.652 6955 4881 C 6955.433 4880.934 6955.435 4881.797 6958.096 4883.639 C 6960.963 4885.624 6964.506 4887.264 6968.981 4888.097 C 7002.304 4897.014 7135.25 4895.104 7171.575 4884.207 Z M 3956.661 4856.193 C 3949.023 4856.999 3937.408 4860.061 3928.536 4863.899 C 3938.202 4863.306 3950.048 4860.206 3956.661 4856.193 Z M 4253.444 4848.761 C 4263.524 4857.707 4272.964 4862.454 4282.331 4863.106 C 4291.538 4863.746 4299.101 4860.859 4306.135 4851.828 C 4316.553 4840.67 4314.064 4820.744 4296.108 4736.036 C 4279.601 4656 4272.381 4618.014 4264.027 4607.942 C 4262.492 4606.092 4262.893 4606.207 4261.64 4606.484 C 4259.982 4606.85 4258.319 4608.102 4255.267 4611.317 C 4248.852 4618.077 4240.635 4630.311 4229.12 4646.833 L 4192.358 4701.008 L 4204.875 4755.888 C 4214.108 4797.697 4232.92 4830.544 4253.444 4848.761 Z M 6881.121 4863.615 C 6882.109 4862.762 6882.943 4861.585 6884.206 4859.033 C 6886.907 4853.572 6889.668 4844.699 6892.875 4830.638 C 6899.34 4802.292 6907.058 4754.744 6918.051 4678.288 C 6934.042 4573.355 6945.069 4488.14 6944.464 4487.536 C 6943.445 4486.516 6927.689 4483.381 6908.668 4480.583 C 6897.786 4520.773 6813.888 4830.299 6814.95 4836.293 L 6815.054 4836.881 L 6815 4837 C 6814.459 4838.197 6816.171 4839.49 6820.089 4842.568 C 6824.191 4845.792 6829.814 4849.062 6836.606 4852.215 C 6850.282 4858.565 6866.808 4863.607 6880.178 4864.003 C 6880.68 4864.248 6880.405 4864.235 6881.121 4863.615 Z M 6166.939 4853.657 C 6170.255 4853.282 6172.772 4852.876 6174.624 4852.414 C 6173.076 4843.835 6166.903 4816.226 6159.156 4785.239 L 6143.295 4724.595 L 6106.809 4729.935 C 6084.91 4733.916 6074.272 4735.795 6068.737 4736.959 C 6070.677 4746.02 6073.865 4761.85 6082.833 4796.716 L 6098.814 4855 L 6137 4855 C 6148.884 4855.003 6159.353 4854.513 6166.939 4853.657 Z M 6292.451 4832.469 C 6291.935 4832.35 6287.006 4804.438 6281.064 4767.8 L 6271.791 4703.82 L 6242.869 4708.924 C 6223.913 4711.916 6208.671 4713.58 6209.472 4714.236 L 6207.828 4712.89 L 6208.536 4715.536 C 6208.25 4714.467 6209.944 4720.486 6212.289 4732.951 C 6214.649 4745.499 6218.37 4762.371 6222.858 4780.818 C 6230.858 4814.318 6234.594 4830.038 6239.742 4836.865 C 6241.907 4839.735 6243.108 4840.267 6246.633 4840.427 C 6250.502 4840.603 6255.519 4839.597 6263.019 4838.097 C 6279.629 4835.168 6291.978 4832.597 6292.451 4832.469 Z M 3941.787 4809.149 C 3949.692 4807.422 3955.05 4806.032 3958.615 4803.928 C 3961.869 4802.008 3962.796 4800.689 3963.284 4796.541 C 3964.419 4786.897 3959.219 4769.463 3948.231 4734.501 C 3942.297 4715.687 3937.294 4703.316 3932.549 4695.961 C 3930.301 4692.477 3928.738 4690.827 3926.961 4689.847 C 3925.481 4689.032 3925.3 4688.818 3923.857 4689.642 C 3916.362 4692.796 3890.888 4697.917 3869.762 4700.942 C 3858.076 4702.876 3849.352 4705.418 3843.647 4708.329 C 3840.96 4709.7 3839.68 4710.651 3838.841 4711.779 C 3838.752 4711.9 3838.67 4711.983 3838.599 4712.038 C 3861.088 4765.513 3873.475 4794.251 3882.078 4809.121 C 3886.236 4816.309 3888.827 4819.406 3891.401 4820.938 C 3893.475 4822.172 3894.407 4822.106 3897.517 4821.224 C 3906.71 4818.175 3925.757 4813.157 3941.787 4809.149 Z M 6747.124 4823.481 C 6747.81 4821.245 6748.642 4818.054 6749.635 4813.863 C 6751.807 4804.694 6754.599 4791.324 6757.842 4774.669 C 6764.335 4741.333 6772.572 4695.157 6781.066 4644.189 L 6810.348 4463.619 L 6778.662 4454.818 C 6762.797 4450.282 6751.775 4446.548 6743.956 4446.405 C 6740.308 4446.339 6738.471 4446.775 6736.365 4448.384 C 6734.147 4450.078 6732.704 4452.351 6731.116 4457.089 C 6724.255 4477.552 6725 4525.962 6725 4629 C 6725 4720.974 6725.496 4769.598 6729.444 4795.754 C 6731.366 4808.487 6733.697 4814.7 6737.209 4818.584 C 6739.807 4821.458 6742.637 4822.642 6747.124 4823.481 Z M 7780.603 4805.896 C 7783.837 4800.398 7788.47 4784.789 7791.061 4768.22 C 7796.409 4738.943 7792.126 4733.107 7729.493 4671.564 C 7668.823 4611.837 7657.105 4603.511 7606.056 4593.91 C 7577.912 4587.729 7554.059 4585.39 7547.256 4586.826 C 7547.419 4587.117 7547.616 4587.448 7547.853 4587.835 C 7549.663 4590.779 7552.684 4594.569 7556.95 4599.262 C 7565.57 4608.744 7578.315 4620.76 7593.201 4633.159 C 7623.28 4659.231 7677.51 4710.438 7713.584 4747.513 C 7731.494 4765.921 7748.539 4781.731 7761.672 4792.51 C 7768.199 4797.867 7773.533 4801.809 7777.553 4804.235 C 7778.836 4805.01 7779.807 4805.538 7780.603 4805.896 Z M 4105.76 4693.35 C 4113.149 4681.792 4117.693 4673.043 4119.539 4666.344 C 4120.412 4663.176 4120.582 4661.28 4120.224 4659.411 C 4119.904 4657.738 4119.667 4657.349 4118.365 4656.368 C 4111.572 4651.246 4093.274 4652.928 4058.14 4660.868 C 4028.829 4667.973 4003.57 4674.567 3997.765 4676.883 C 3997.959 4678.33 3998.342 4680.255 3998.944 4682.804 C 4000.309 4688.583 4002.604 4696.632 4005.648 4706.385 C 4011.75 4725.937 4020.701 4751.8 4030.678 4778.235 C 4031.353 4780.373 4031.455 4780.465 4032.033 4780.71 C 4032.612 4780.957 4032.466 4780.935 4034.522 4779.838 C 4039.538 4777.163 4046.857 4770.083 4058.194 4756.758 C 4075.032 4737.958 4095.855 4709.209 4105.76 4693.35 Z M 4369.207 4783.995 C 4374.146 4779.632 4387.511 4764.426 4400.895 4745.145 C 4417.866 4722.186 4435.039 4697.955 4440.159 4691.799 C 4445.714 4685.819 4435.17 4641.272 4410.233 4561.507 L 4374.03 4448.258 L 4351.86 4475.179 C 4337.033 4492.944 4322.466 4515.156 4319.743 4523.581 C 4315.893 4532.273 4323.909 4583.068 4335.877 4635.896 C 4347.881 4689.914 4359.835 4745.745 4361.938 4762.196 C 4363.379 4769.4 4365.206 4775.533 4367.208 4780.127 C 4367.951 4781.83 4368.581 4783.05 4369.207 4783.995 Z M 6568.706 4435.704 C 6568.54 4436.79 6568.373 4437.947 6568.203 4439.181 C 6565.476 4459.015 6562.991 4494.803 6559.993 4552.261 C 6556.892 4606.482 6556.182 4656.962 6558.124 4681.051 C 6558.47 4678.576 6558.813 4675.796 6559.155 4672.701 C 6561.516 4651.331 6563.505 4616.777 6565.003 4569.841 C 6567.237 4510.275 6568.508 4458.552 6568.706 4435.704 Z M 6122.377 4683.952 C 6125.801 4683.344 6128.624 4682.822 6130.714 4682.385 C 6130.628 4682.025 6130.537 4681.584 6130.44 4681.049 C 6129.81 4677.576 6128.794 4672.654 6127.486 4666.548 C 6124.866 4654.32 6121.123 4637.601 6117.123 4619.101 L 6102.04 4555 L 6057 4555 C 6039.156 4554.995 6027.859 4555.705 6021.374 4557.558 C 6018.468 4558.388 6017.801 4558.75 6017.285 4559.523 C 6016.929 4560.057 6016.821 4559.572 6017.642 4561.143 C 6020.743 4568.422 6030.804 4602.616 6039.818 4636.663 L 6056.587 4694.422 L 6093.191 4689.065 C 6104.196 4687.065 6114.652 4685.322 6122.377 4683.952 Z M 6203.015 4668.983 C 6211.335 4673.512 6225.032 4669.221 6256.487 4659.234 C 6257.59 4659.277 6256.872 4659.556 6257.103 4658.031 C 6257.419 4655.949 6257.039 4653.203 6255.592 4648.458 C 6252.575 4638.56 6245.559 4623.792 6233.634 4602.437 C 6207.985 4555.922 6198.163 4545 6181 4545 C 6174.579 4545 6170.9 4545.863 6168.547 4547.558 C 6167.59 4548.246 6167.596 4548.229 6167.388 4548.961 C 6167.166 4549.74 6167.085 4549.95 6167.682 4551.244 C 6169.735 4557.429 6177.862 4589.837 6184.875 4620.89 C 6191.867 4651.355 6194.768 4664.494 6203.015 4668.983 Z M 3821.638 4664.977 C 3827.556 4664.609 3852.114 4659.863 3878.952 4654.111 C 3898.769 4650.155 3910.514 4646.867 3916.962 4643.067 C 3919.878 4641.349 3920.826 4640.373 3921.479 4638.731 C 3922.1 4637.169 3922.113 4636.096 3921.221 4633.47 C 3906.218 4580.961 3899.074 4555.586 3893.172 4544.023 C 3890.503 4538.796 3889.464 4537.791 3887.354 4537.315 C 3885.172 4536.823 3882.517 4537.587 3877.185 4538.858 C 3865.003 4541.894 3836.863 4546.925 3812.838 4550.929 C 3801.51 4552.894 3791.623 4555.312 3784.557 4557.627 C 3781.707 4558.56 3779.55 4559.39 3777.959 4560.157 C 3781.646 4569.046 3790.206 4591.668 3798.702 4616.298 C 3804.143 4630.644 3809.759 4643.333 3814.561 4652.568 C 3816.94 4657.142 3818.981 4660.622 3820.713 4663.052 C 3821.723 4664.469 3821.86 4664.872 3821.638 4664.977 Z M 7804.996 4652.584 C 7805.024 4649.793 7804.944 4646.236 7804.755 4641.972 C 7804.259 4630.812 7803.025 4615.493 7801.034 4598.584 C 7795.517 4539.286 7765.698 4432.362 7750.456 4412.225 C 7749.135 4415.361 7747.671 4419.885 7746.078 4425.8 C 7742.619 4438.648 7738.929 4456.851 7735.95 4477.707 C 7730.514 4515.758 7723.144 4550.437 7720.019 4559.689 C 7720.303 4560.281 7720.736 4561.029 7721.412 4562.091 C 7723.286 4565.038 7726.227 4568.977 7730.069 4573.759 C 7737.797 4583.375 7748.647 4595.709 7760.038 4607.972 C 7778.38 4627.717 7796.805 4646.145 7804.996 4652.584 Z M 6494.001 4513.923 L 6494.968 4425.918 L 6445.575 4398.372 C 6423.706 4386.307 6403.585 4375.401 6393.342 4369.933 C 6393.345 4370.003 6393.349 4370.073 6393.353 4370.144 C 6393.644 4375.697 6394.411 4383.857 6395.593 4394.181 C 6397.961 4414.874 6401.947 4443.778 6406.942 4476.24 C 6423.756 4585.606 6426.885 4593.064 6456.201 4617.159 C 6472.201 4630.659 6479.048 4636.506 6482.635 4637.058 C 6482.685 4637.066 6482.726 4637.076 6482.76 4637.087 C 6482.775 4636.928 6482.869 4636.651 6483.14 4636.189 C 6484.362 4634.105 6485.481 4630.75 6487.195 4625.603 C 6490.11 4613.718 6493.004 4563.818 6494.001 4513.923 Z M 3982.442 4627.941 C 3985.139 4628.772 3989.158 4628.868 3996.698 4628.031 C 4012.202 4626.308 4038.921 4620.618 4085.876 4610.128 C 4091.079 4608.889 4094.404 4608.06 4096.646 4606.833 C 4098.565 4605.783 4098.641 4605.731 4098.917 4603.607 C 4099.657 4597.895 4096.248 4587.055 4088.271 4563.623 C 4079.313 4537.739 4069.911 4513.696 4066.464 4510.536 L 4066.11 4510.211 L 4066.096 4510.123 C 4065.834 4508.553 4059.164 4508.761 4047.127 4509.369 C 4034.937 4509.984 4019.285 4511.937 4002.938 4514.911 L 3948.463 4525.806 L 3961.763 4567.478 C 3969.771 4592.504 3977.793 4618.578 3979.808 4625.626 C 3980.374 4627.624 3980.395 4627.309 3982.442 4627.941 Z M 2498.915 4511.119 C 2562.029 4497.094 2677.187 4477.067 2754.23 4465.06 C 2949.216 4437.062 3052.83 4421.582 3107.652 4409.247 C 3134.865 4403.124 3149.266 4398.043 3157.169 4392.613 C 3164.245 4387.751 3165 4384.138 3165 4377 C 3165 4373.249 3164.781 4371.031 3164.115 4369.256 C 3163.547 4367.741 3163.501 4367.678 3162.14 4367.089 C 3158.556 4365.539 3152.022 4365.968 3138.733 4367.946 C 3120.805 4369.937 3049.68 4379.953 2980.658 4388.957 C 2706.758 4425.941 2580.019 4447.893 2442.18 4480.859 C 2330.8 4508.327 2253.451 4531.211 2203.845 4552.471 C 2179.17 4563.045 2161.886 4572.934 2150.521 4582.846 C 2139.448 4592.504 2135 4600.688 2135 4610 C 2135 4611.611 2135.074 4612.116 2135.409 4612.778 C 2135.693 4613.341 2135.378 4613.054 2136.187 4613.365 C 2138.604 4614.296 2142.715 4614.143 2151.362 4612.354 C 2169.211 4608.661 2200.911 4598.259 2256.381 4579.27 C 2326.477 4556.24 2435.773 4525.151 2498.915 4511.119 Z M 4224.931 4527.094 C 4241.471 4504.539 4241.083 4501.638 4185.166 4290.277 L 4129.465 4074.435 L 4076.317 4015.382 C 4061.401 3999.471 4047.085 3985.404 4035.928 3975.487 C 4030.38 3970.555 4025.791 3966.8 4022.287 3964.345 C 4021.435 3963.748 4020.721 3963.274 4020.101 3962.895 C 4020.021 3963.52 4019.853 3964.478 4019.532 3965.991 C 4018.589 3970.437 4017.784 3976.605 4017.106 3984.313 C 4015.742 3999.809 4015 4020.589 4015 4043 C 4015 4117.394 4021.809 4144.641 4091.765 4366.484 L 4166.958 4600.739 L 4184.136 4579.826 C 4197.026 4564.964 4214.966 4541.047 4224.931 4527.094 Z M 5255.029 4587.301 C 5255.808 4587.917 5256.814 4588.417 5258.751 4589.112 C 5262.956 4590.62 5268.994 4591.836 5276.937 4592.836 C 5292.97 4594.856 5315.062 4595.686 5339.687 4595.375 C 5388.996 4594.753 5447.143 4589.59 5483.744 4580.16 C 5563.129 4559.409 5629.899 4521.158 5677.306 4469.63 C 5696.28 4448.66 5705.346 4438.452 5708.283 4430.093 C 5710.97 4422.445 5708.477 4417.124 5701.55 4403.281 C 5660.742 4325.608 5439.877 4046.765 5402.671 4027.425 C 5396.945 4024.188 5393.987 4022.478 5391.641 4022.684 C 5389.468 4022.875 5388.482 4023.974 5385.427 4030.694 C 5378.748 4045.388 5370.861 4078.17 5354.862 4144.167 C 5303.614 4360.001 5256.372 4568.494 5255.029 4587.301 Z M 5175.912 4583.342 C 5178.779 4584.598 5181.299 4584.896 5184.532 4584.427 C 5191.169 4583.463 5196.736 4580.046 5199.34 4572.188 C 5205.681 4556.332 5207.199 4541.741 5204.972 4530.606 C 5203.895 4525.221 5202.263 4521.599 5199.63 4518.758 C 5197.095 4516.024 5194.937 4515 5191 4515 C 5187.318 4515 5184.322 4516.919 5180.403 4521.313 C 5176.364 4525.841 5172.979 4531.815 5170.302 4538.894 C 5164.918 4553.131 5163.117 4568.398 5169.251 4577.368 C 5170.966 4580.49 5173.027 4582.078 5175.912 4583.342 Z M 5109.021 4563.378 C 5110.434 4562.717 5110.934 4562.201 5111.903 4560.264 C 5114.145 4555.78 5115 4548.216 5115 4535 C 5115 4518.643 5114.788 4512.109 5111.339 4508.661 C 5107.891 4505.212 5101.357 4505 5085 4505 C 5069.143 4505 5062.274 4505.302 5058.661 4508.249 C 5055.278 4511.009 5055 4515.757 5055 4529 C 5055 4542.848 5056.743 4549.697 5063.405 4554.773 C 5070.422 4560.119 5082.182 4562.558 5103.348 4564.012 C 5106.118 4564.271 5107.534 4564.074 5109.021 4563.378 Z M 6345.07 4531.306 C 6347.868 4532.388 6348.716 4532.526 6349.737 4532.165 C 6350.59 4531.863 6350.445 4531.979 6351.081 4529.831 C 6354.392 4518.641 6349.083 4487.906 6337.094 4426.965 C 6328.594 4382.965 6324.492 4361.704 6317.964 4349.48 C 6311.852 4338.033 6304.164 4335.151 6285.164 4327.651 C 6274.804 4323.206 6265.212 4319.76 6257.991 4317.68 C 6254.429 4316.653 6251.673 4316.013 6249.59 4315.715 C 6249.575 4315.713 6249.56 4315.711 6249.546 4315.709 C 6250.125 4322.495 6255.791 4357.763 6263.914 4401.079 C 6278.691 4482.41 6280.719 4486.869 6317.966 4513.975 C 6330.148 4522.926 6338.901 4528.919 6345.07 4531.306 Z M 5001.88 4530.917 C 5004.072 4527.729 5005 4523.01 5005 4515 C 5005 4508.395 5004.139 4503.009 5002.672 4498.948 C 5001.982 4497.036 5001.45 4496.038 5000.729 4495.203 C 5000.652 4495.114 5000.602 4495.045 5000.574 4494.994 C 4994.676 4494.848 4976.732 4491.853 4960.131 4488.924 C 4946.853 4485.963 4940.701 4485.097 4937.56 4486.623 C 4936.428 4487.172 4936.411 4487.238 4935.851 4489.181 C 4935.201 4491.439 4935 4494.419 4935 4499 C 4935 4508.577 4940.249 4516.048 4950.675 4522.651 C 4961.329 4529.398 4975.756 4533.597 4993.139 4534.002 C 4997.979 4534.682 4999.903 4533.792 5001.88 4530.917 Z M 7597.189 4516.923 C 7618.94 4519.95 7632.402 4520.454 7641.075 4518.934 C 7648.945 4517.556 7651.186 4515.892 7652.235 4511.484 C 7653.423 4508.195 7654.204 4506.894 7654.081 4505.965 C 7653.93 4504.834 7653.511 4504.378 7648.65 4501.812 C 7637.595 4495.976 7611.819 4487.873 7554.389 4473.22 C 7439.323 4443.86 7199.381 4388.873 6703.879 4274.873 C 6358.89 4195.375 6159.475 4150.394 6044.55 4128.159 C 5987.155 4117.054 5951.122 4111.668 5928.484 4110.462 C 5906.495 4109.29 5899.397 4110.931 5897.271 4115.6 C 5895.993 4117.277 5896.093 4117.606 5896.682 4119.14 C 5897.393 4120.992 5898.831 4122.587 5902.423 4125.113 C 5910.102 4130.514 5923.917 4136.365 5946.126 4143.356 C 5990.818 4157.423 6067.075 4175.117 6187.02 4200.105 C 6353.057 4235.113 6847.119 4347.127 7351.133 4465.13 C 7478.595 4494.622 7553.375 4510.824 7597.189 4516.923 Z M 3832.228 4499.06 C 3855.439 4495.12 3865.824 4492.463 3869.94 4485.465 C 3874.093 4478.406 3871.664 4467.245 3864.228 4443.491 L 3854.454 4409.732 L 3787.901 4421.918 C 3753.969 4427.856 3726.033 4431.858 3718.522 4433.123 C 3719.254 4435.267 3720.376 4438.139 3721.863 4441.697 C 3725.332 4449.997 3730.518 4461.358 3736.49 4473.801 C 3745.397 4491.624 3751.433 4501.836 3757.302 4507.359 C 3762.654 4512.397 3766.203 4513.085 3773.518 4511.22 C 3785.022 4507.128 3811.109 4502.079 3832.228 4499.06 Z M 6085.085 4513.767 C 6088.872 4513.452 6091.894 4513.107 6094.154 4512.738 C 6092.73 4507.618 6089.587 4497.114 6085.318 4485.756 C 6080.293 4469.668 6071.166 4436.276 6065.153 4412.226 L 6055.274 4373.61 L 6012.748 4379.944 C 5991.315 4383.24 5973.733 4386.279 5968.285 4387.23 C 5968.421 4387.615 5968.565 4388.172 5968.732 4388.947 C 5969.499 4392.506 5970.724 4397.528 5972.339 4403.742 C 5975.578 4416.198 5980.304 4433.113 5985.792 4451.572 L 6004.725 4515 L 6050 4515 C 6063.9 4515.002 6076.192 4514.508 6085.085 4513.767 Z M 6173.764 4503.528 C 6175.396 4502.712 6174.75 4503.222 6174.999 4503.187 C 6174.374 4498.886 6163.021 4483.531 6150.742 4468.401 C 6145.633 4462.104 6140.62 4456.28 6136.488 4451.885 C 6138.625 4460.929 6142.869 4471.647 6147.941 4481.453 C 6151.595 4488.517 6155.433 4494.623 6159.162 4499.122 C 6162.76 4503.463 6164.542 4505 6166 4505 C 6169.476 4505 6171.823 4504.499 6173.764 4503.528 Z M 8316.581 4470.206 C 8347.525 4460.943 8367.851 4448.963 8381.027 4431.715 C 8394.172 4414.506 8399.573 4392.941 8399.001 4363.082 C 8398.733 4296.813 8363.152 4262.022 8242.839 4204.509 C 8041.309 4106.681 7843.161 4055.913 7564.565 4030.981 C 7498.495 4025.341 7441.717 4020.833 7421.814 4019.686 C 7423.721 4021.85 7426.056 4024.417 7428.782 4027.34 C 7437.365 4036.545 7449.513 4048.943 7463.463 4062.394 C 7530.061 4126.078 7603.969 4172.464 7671.347 4192.184 C 7701.421 4200.208 7737.417 4211.205 7751.374 4215.192 C 7763.153 4218.796 7771.75 4222.774 7775.522 4232.281 C 7778.988 4241.013 7778.998 4255.101 7777.996 4279.2 L 7776.107 4328.323 L 7828.684 4361.782 C 7909.244 4413.557 8018.398 4456.214 8125.994 4479.099 C 8172.442 4488.044 8269.172 4484.103 8316.581 4470.206 Z M 3933.196 4465.405 C 3935.638 4468.992 3937.692 4470.302 3943.393 4471.041 C 3956.116 4472.691 3980.039 4468.093 4031.076 4459.086 C 4043.371 4456.633 4047.063 4456.066 4048.461 4452.448 C 4050.072 4448.279 4048.167 4440.778 4043.192 4423.374 C 4038.297 4403.696 4030.911 4384.696 4027.464 4381.536 C 4026.673 4379.6 4019.762 4379.762 4008.303 4380.747 C 3996.699 4381.745 3982.229 4384.218 3967.864 4387.499 C 3953.501 4390.781 3939.672 4394.771 3929.325 4398.827 C 3924.208 4400.833 3920.301 4402.692 3917.53 4404.508 C 3915.006 4406.162 3915 4405.925 3915 4406 C 3915 4411.364 3919.775 4429.531 3925.729 4447.377 C 3928.74 4455.91 3930.587 4461.574 3933.196 4465.405 Z M 5222.279 4457.945 C 5226.851 4450.744 5230.117 4437.43 5235.089 4412.058 C 5241.106 4379.982 5249.086 4344.067 5252.122 4331.896 C 5254.054 4322.377 5254.432 4319.551 5252.407 4317.602 C 5250.136 4315.415 5245.234 4315 5233 4315 C 5225.807 4315 5221.01 4315.106 5217.253 4316.17 C 5213.726 4317.169 5212.089 4318.354 5209.902 4321.965 C 5204.981 4330.09 5201.92 4346.391 5195.929 4379.843 C 5188.432 4425.821 5184.807 4447.783 5186.324 4458.285 C 5186.958 4462.678 5187.293 4463.126 5189.752 4464.019 C 5192.628 4465.062 5196.97 4465 5204 4465 C 5214.438 4465 5218.22 4464.338 5222.279 4457.945 Z M 5142.034 4382.42 C 5145.03 4360.951 5147.535 4341.155 5149.157 4326.813 C 5149.966 4319.654 5150.552 4313.889 5150.876 4309.893 C 5150.95 4308.98 5151.008 4308.184 5151.053 4307.495 C 5149.025 4306.975 5146.205 4306.353 5142.66 4305.656 C 5135.106 4304.17 5124.766 4302.445 5113.353 4300.958 L 5077.149 4294.781 L 5071.939 4327.78 C 5067.975 4348.509 5064.992 4386.197 5065 4413 L 5065 4455 L 5133.55 4455 L 5142.034 4382.42 Z M 5917.427 4452.06 C 5917.413 4451.942 5917.398 4451.822 5917.383 4451.7 C 5916.681 4446.101 5915.217 4438.019 5913.105 4427.896 C 5908.871 4407.597 5902.155 4379.737 5894.171 4349.295 C 5877.174 4287.308 5851.221 4194.464 5834.257 4143.581 C 5818.226 4092.474 5805 4042.641 5805 4034 C 5805 3982.555 5690.603 3838.599 5593.122 3770.088 C 5559.271 3745.688 5523.005 3723.336 5495.139 3708.407 C 5481.248 3700.966 5469.693 3695.492 5461.533 3692.508 C 5458.542 3691.415 5456.312 3690.743 5454.627 3690.421 C 5452.592 3704.312 5442.502 3753.772 5430.898 3810.004 L 5408.372 3920.676 L 5481.868 4010.831 C 5548.038 4091.193 5872.012 4417.583 5917.427 4452.06 Z M 4995.617 4442.924 C 4997.81 4441.745 4998.98 4440.175 5000.665 4435.447 C 5004.347 4425.112 5006.526 4405.497 5010.021 4368.538 C 5012.015 4346.618 5013.254 4326.039 5013.626 4310.629 C 5013.997 4295.311 5014.616 4287.202 5014.227 4288.16 L 5014.131 4288.395 L 5013.464 4287.536 C 5011.653 4285.2 4992.083 4280.909 4970.324 4277.954 L 4935 4272.785 L 4935 4353 C 4935 4398.473 4935.192 4420.303 4941.697 4431.486 C 4947.796 4441.972 4958.859 4442.514 4986.272 4444.007 C 4990.987 4444.259 4993.423 4444.104 4995.617 4442.924 Z M 4336.369 4376.741 C 4338.82 4370.715 4337.842 4366.728 4333.569 4358.316 C 4326.197 4344.541 4300.95 4308.683 4276.866 4276.363 C 4264.827 4260.207 4253.174 4245.074 4244.265 4234.143 C 4242.131 4231.525 4240.175 4229.172 4238.418 4227.115 C 4242.202 4244.998 4251.043 4283.116 4261.859 4327.821 L 4286.793 4430.327 L 4313.492 4404.437 C 4326.867 4391.068 4333.68 4383.351 4336.369 4376.741 Z M 6211.755 4432.867 C 6212.408 4433.132 6212.87 4433.309 6213.217 4433.423 C 6213.253 4431.828 6212.68 4429.13 6211.221 4424.47 C 6208.19 4414.358 6203.159 4394.251 6199.169 4379.288 C 6195.669 4363.788 6195.006 4358.659 6190.188 4356.785 C 6184.716 4354.657 6174.541 4356.891 6151.041 4361.891 L 6128.18 4366.049 L 6164.261 4397.21 C 6188.645 4418.116 6203.738 4429.614 6211.755 4432.867 Z M 4702.828 4402.996 C 4702.864 4402.463 4702.945 4401.824 4703.087 4401.071 C 4704.756 4392.247 4705 4372.469 4705 4335 C 4705 4313.633 4704.017 4295.208 4702.292 4282.024 C 4701.669 4277.259 4700.984 4273.374 4700.223 4270.309 C 4699.524 4273.336 4698.889 4277.107 4698.301 4281.588 C 4696.667 4294.045 4695.622 4310.711 4695.249 4327.859 C 4694.503 4362.165 4695.678 4396.011 4700.363 4399.3 C 4701.664 4400.758 4702.416 4402.02 4702.828 4402.996 Z M 3792.267 4369.054 C 3805.034 4367.592 3816.489 4365.156 3824.775 4362.598 C 3828.85 4361.339 3831.844 4360.169 3833.961 4359.041 C 3834.465 4358.772 3834.77 4358.659 3834.949 4358.653 C 3834.395 4350.843 3829.431 4335.32 3823.501 4320.902 C 3820.36 4313.265 3817.093 4306.311 3814.147 4301.175 C 3811.288 4296.19 3810.794 4295 3811 4295 C 3801.422 4295 3770.995 4307.088 3742.391 4320.643 C 3728.097 4327.418 3714.616 4334.404 3704.708 4340.284 C 3699.789 4343.203 3695.968 4345.711 3693.325 4347.802 C 3690.873 4349.742 3691.487 4349.03 3691.08 4349.116 C 3692.056 4355.545 3692.976 4366.516 3693.969 4375.448 C 3694.15 4379.934 3694.722 4380.848 3697.698 4381.922 C 3701.321 4383.231 3706.911 4383.052 3717.033 4381.094 C 3732.155 4378.074 3765.259 4373.055 3792.267 4369.054 Z M 4640.414 4374.899 C 4640.426 4374.875 4640.438 4374.85 4640.451 4374.825 C 4641.224 4373.251 4641.917 4371.073 4642.619 4367.915 C 4644.059 4361.436 4645 4352.731 4645 4343 C 4645 4313.299 4642.623 4293.543 4637.382 4280.917 C 4634.861 4274.844 4632.209 4271.238 4628.523 4268.594 C 4624.905 4265.998 4621.325 4265 4616 4265 C 4611.419 4265 4608.587 4265.189 4606.402 4265.954 C 4604.484 4266.625 4604.181 4266.881 4603.351 4268.833 C 4601.255 4273.758 4601.491 4283.234 4602.981 4302.567 C 4604.879 4322.019 4610.845 4340.214 4618.719 4354.023 C 4625.945 4366.697 4633.15 4373.971 4640.414 4374.899 Z M 3964.106 4340.081 C 3983.387 4336.575 4001.264 4332.571 4006.726 4330.543 C 4006.704 4330.192 4006.667 4329.775 4006.612 4329.266 C 4006.312 4326.458 4005.571 4322.61 4004.43 4317.772 C 4002.132 4308.023 3998.409 4295.222 3994.12 4282.047 C 3986.233 4257.813 3976.904 4233.581 3971.728 4226.105 C 3971.235 4226.214 3970.655 4226.356 3969.96 4226.537 C 3967.037 4227.3 3963.019 4228.553 3958.112 4230.207 C 3948.259 4233.528 3935.334 4238.301 3922.186 4243.41 C 3896.146 4253.53 3871.334 4263.602 3867.61 4266.792 C 3867.641 4266.864 3867.704 4267.2 3867.864 4268.242 C 3868.26 4270.821 3869.045 4274.313 3870.21 4278.724 C 3872.556 4287.616 3876.249 4299.437 3880.725 4312.364 C 3886.653 4329.678 3891.331 4340.427 3896.08 4346.566 C 3898.289 4349.421 3899.759 4350.615 3901.77 4351.353 C 3903.68 4352.055 3904.962 4352.111 3907.53 4351.221 C 3916.582 4349.21 3942.062 4344.089 3964.106 4340.081 Z M 7677.603 4334.897 C 7692.11 4336.282 7678 4335 7678 4335 C 7679.613 4335.42 7690.135 4328.571 7680.169 4317.209 C 7676.898 4313.479 7674.944 4307.192 7667.007 4303.232 C 7651.001 4295.243 7623.497 4273.943 7593.378 4263.054 C 7533.061 4241.248 7474.539 4214.362 7370.909 4184.754 C 7163.608 4125.525 6867.25 4039.756 6589.823 3978.273 C 6031.86 3855.281 5895.711 3840.049 5895.711 3840.049 C 5895.711 3840.049 5884.424 3839.313 5882.493 3837.777 C 5878.827 3834.861 5874.018 3830.019 5868.672 3823.973 C 5858.061 3811.973 5844.39 3794.247 5830.322 3774.153 C 5755.95 3660.809 5704.193 3599.118 5553.845 3547.453 C 5351.451 3478.58 4582.549 3395.437 3877.74 3396.444 C 3312.878 3397.44 2850.621 3476.952 2620.934 3519.912 C 2574.606 3528.873 2543.987 3536.962 2523.784 3546.635 C 2504.055 3556.081 2495.313 3565.743 2491.847 3580.227 C 2488.856 3591.021 2490.628 3597.44 2494.674 3600.993 C 2496.492 3602.589 2497.716 3602.987 2500.418 3602.713 C 2503.355 3602.416 2506.153 3601.282 2509.817 3598.144 C 2565.286 3552.579 3088.712 3504.011 3679.882 3490.001 C 4297.119 3475.007 5328.096 3548.182 5510.839 3620.351 C 5635.558 3668.779 5717.765 3738.811 5787.287 3854.428 C 5801.214 3877.811 5809.457 3890.063 5816.998 3896.096 C 5823.904 3901.62 5828.969 3901.557 5839.938 3899.114 C 5868.828 3894.116 5929.972 3905.096 6281.044 3980.11 C 6914.123 4115.128 7225.368 4192.194 7526.534 4289.241 C 7603.458 4314.218 7625.235 4329.899 7677.603 4334.897 Z M 6032.249 4314.331 C 6033.11 4310.692 6032.043 4299.609 6029.081 4281.902 C 6025.815 4265.623 6021.008 4256.541 6009.177 4248.96 C 5996.927 4241.11 5977.876 4235.868 5946.079 4229.914 L 5919.019 4224.503 L 5947.661 4326.541 L 5986.422 4322.033 C 6010.076 4320.087 6030.082 4315.973 6032.249 4314.331 Z M 6168 4305 C 6177.029 4305 6182.01 4304.18 6184.555 4302.783 C 6184.441 4302.664 6184.291 4302.5 6184.094 4302.272 C 6179.106 4296.507 6163.233 4288.654 6136.628 4280.808 C 6122.182 4276.823 6108.824 4273.36 6098.902 4271.128 C 6093.968 4270.018 6090.049 4269.246 6087.253 4268.859 C 6087.212 4268.853 6087.172 4268.848 6087.132 4268.843 C 6087.468 4269.862 6087.907 4271.406 6088.381 4273.54 C 6089.586 4278.965 6091.709 4285.831 6094.642 4293.143 C 6098.458 4303.748 6101.396 4308.882 6105.4 4311.385 C 6109.205 4313.763 6113.231 4313.593 6121.662 4311.182 C 6133.897 4308.135 6154.629 4305 6168 4305 Z M 2182.738 4302.539 C 2183.927 4303.533 2184.801 4303.687 2189.867 4303.04 C 2201.208 4301.592 2224.089 4294.703 2274.62 4280.194 C 2373.843 4251.14 2722.167 4183.072 2889.305 4160.048 C 2952.261 4151.055 3039.156 4137.072 3083.106 4129.081 C 3126.213 4122.066 3185.705 4115 3214 4115 C 3236.356 4115 3248.419 4114.31 3255.21 4111.706 C 3258.213 4110.555 3259.204 4109.739 3260.265 4107.849 C 3261.37 4105.881 3261.796 4103.648 3262.009 4099.706 C 3262.493 4095.482 3262.52 4093.126 3261.713 4091.348 C 3260.955 4089.679 3260.23 4089.137 3256.645 4088.026 C 3248.409 4085.474 3232.425 4085 3202 4085 C 3136.33 4085 3061.737 4094.945 2690.815 4155.933 C 2353.964 4211.904 2232.249 4239.283 2192.261 4271.793 C 2186.592 4276.967 2182.479 4282.212 2179.951 4287.152 C 2177.555 4291.835 2176.55 4294.003 2178.16 4295.226 C 2180.577 4299.308 2181.535 4301.533 2182.738 4302.539 Z M 4548.421 4304.217 C 4548.506 4303.718 4548.578 4303.11 4548.642 4302.335 C 4548.984 4298.239 4548.563 4292.723 4547.111 4286.048 C 4545.792 4277.165 4543.709 4272.406 4539.839 4269.249 C 4535.959 4266.084 4530.958 4264.94 4522 4265 L 4508.394 4265 L 4523.676 4281.611 C 4534.26 4293.045 4544.465 4301.657 4548.421 4304.217 Z M 5243.529 4275.517 C 5248.443 4276.308 5251.207 4275.579 5254.806 4272.385 C 5262.78 4265.31 5268.698 4248.648 5275.106 4217.974 C 5280.591 4192.055 5283.245 4177.095 5283.125 4167.563 C 5283.017 4158.923 5281.533 4156.467 5276.227 4153.16 C 5270.396 4149.448 5259.285 4146.667 5248.983 4145.334 C 5243.879 4144.673 5239.569 4144.481 5236.371 4144.83 C 5235.654 4144.908 5235.154 4144.979 5234.774 4145.06 C 5233.728 4152.538 5229.179 4177.845 5223.92 4205.889 C 5219.939 4228.772 5218.012 4243.235 5218.371 4252.813 C 5218.704 4261.692 5219.888 4264.6 5224.394 4266.611 C 5232.099 4271.694 5238.302 4274.675 5243.529 4275.517 Z M 5153.137 4253.706 C 5156.772 4253.045 5158.019 4252.348 5159.776 4249.575 C 5163.944 4242.994 5165.533 4228.93 5169.033 4198.43 C 5173.017 4164.636 5174.172 4138.243 5172.464 4136.536 C 5170.866 4134.937 5149.856 4129.618 5127.825 4124.889 C 5116.812 4122.524 5105.97 4120.424 5097.719 4119.092 C 5093.616 4118.43 5090.299 4117.979 5087.898 4117.775 C 5087.697 4117.758 5087.509 4117.743 5087.334 4117.73 C 5086.652 4123.584 5084.471 4150.163 5080.974 4182.507 C 5077.48 4218.95 5075.982 4235.254 5082.564 4243.67 C 5089.034 4251.944 5103.253 4252.507 5136.194 4254.004 C 5143.926 4254.253 5149.186 4254.424 5153.137 4253.706 Z M 5014.231 4233.331 C 5016.98 4232.484 5017.987 4231.621 5019.614 4228.218 C 5023.378 4220.349 5025.024 4204.507 5028.022 4172.533 C 5030.017 4154.082 5031.513 4137.13 5032.259 4124.701 C 5032.63 4118.509 5032.812 4113.555 5032.781 4110.043 C 5032.776 4109.438 5032.766 4108.905 5032.75 4108.431 C 5024.204 4107.181 5004.051 4104.058 4982.319 4100.953 L 4935 4094.704 L 4935 4159 C 4935 4197 4934.841 4213.922 4942.615 4222.681 C 4950.312 4231.355 4965.769 4232.008 5001.241 4234.006 C 5007.367 4234.252 5011.231 4234.255 5014.231 4233.331 Z M 4690.139 4219.06 L 4690.536 4219.464 C 4694.379 4223.385 4696.439 4224.695 4698.227 4224.867 C 4698.395 4224.883 4698.465 4224.908 4698.491 4224.927 C 4698.502 4224.899 4698.545 4224.845 4698.666 4224.753 C 4699.253 4224.306 4699.524 4223.924 4700.193 4222.442 C 4703.343 4215.468 4704.506 4200.389 4704.003 4175.178 C 4703.014 4155.864 4701.575 4142.708 4699.187 4134.231 C 4698.046 4130.18 4697.017 4127.965 4695.645 4126.368 C 4694.499 4125.034 4694.436 4125 4693 4125 C 4691.779 4125 4691.871 4124.959 4690.907 4126.043 C 4689.728 4127.368 4688.892 4129.124 4687.947 4132.572 C 4685.943 4139.88 4685 4151.208 4685 4168 C 4685 4194.702 4686.982 4217.702 4690 4219 L 4690.139 4219.06 Z M 4540.964 4212.214 C 4543.119 4210.06 4542.57 4206.753 4540.124 4196.108 C 4537.109 4182.032 4533.096 4159.971 4530.111 4146.048 C 4528.274 4136.564 4526.305 4132.077 4522.094 4129.069 C 4517.748 4125.964 4511.602 4125 4500 4125 C 4486.749 4125 4481.416 4125.405 4479.036 4127.786 C 4476.881 4129.94 4477.43 4133.247 4479.876 4143.892 C 4482.891 4157.969 4486.904 4180.029 4489.889 4193.952 C 4491.726 4203.436 4493.695 4207.923 4497.906 4210.931 C 4502.252 4214.036 4508.398 4215 4520 4215 C 4533.251 4215 4538.584 4214.595 4540.964 4212.214 Z M 4628.725 4214.146 C 4631.264 4213.485 4631.674 4213.22 4632.599 4211.25 C 4634.982 4206.173 4634.507 4195.773 4633.011 4173.333 C 4631.517 4150.925 4630.43 4140.228 4626.769 4134.414 C 4623.479 4129.189 4618.717 4128.433 4605.448 4126.969 C 4592.645 4125.484 4588.014 4125.138 4586.178 4126.754 C 4585.639 4127.228 4585.742 4127.08 4585.825 4129.417 C 4585.92 4132.108 4586.619 4135.612 4587.829 4140.693 C 4591.892 4154.111 4595 4176.662 4595 4193 C 4595 4203.634 4595.622 4208.369 4598.398 4211.33 C 4601.144 4214.259 4605.472 4215 4616 4215 C 4621.932 4215 4625.848 4214.894 4628.725 4214.146 Z M 4429.84 4193.928 C 4431.799 4194.644 4432.111 4195.034 4432.147 4195.145 C 4432.152 4195.131 4432.162 4195.113 4432.179 4195.09 C 4432.608 4194.533 4432.625 4193.775 4431.314 4189.755 C 4428.183 4182.177 4424.114 4164.061 4421.103 4149.009 C 4418.752 4137.999 4416.485 4132.722 4412.081 4129.342 C 4407.647 4125.939 4401.602 4125 4390 4125 C 4380.826 4125 4374.694 4125.804 4370.56 4127.523 C 4368.692 4128.3 4368.006 4128.777 4367.288 4129.705 C 4366.641 4130.541 4366.605 4130.66 4366.624 4131.924 C 4366.727 4138.686 4375.182 4149.644 4394.391 4167.326 C 4410.648 4182.625 4422.608 4191.288 4429.84 4193.928 Z M 5300.257 4096.066 C 5304.829 4087.861 5308.636 4073.347 5314.107 4047.969 C 5321.078 4014.133 5324.92 3992.985 5324.669 3989.087 C 5320.348 3987.824 5307.087 3984.913 5287.258 3981.945 L 5255.305 3976.763 L 5249.964 4018.604 C 5246.943 4044.734 5241.948 4073.701 5240.969 4082.552 L 5240.93 4082.905 L 5240.867 4083.145 C 5239.93 4086.696 5240.119 4088.707 5241.179 4091.045 C 5242.248 4093.403 5243.753 4094.881 5247.149 4096.738 C 5254.472 4100.743 5266.595 4103.047 5285.263 4104.007 C 5293.213 4104.675 5296.156 4103.427 5300.257 4096.066 Z M 4702.156 4073.989 C 4702.976 4063.397 4703.564 4048.361 4703.876 4029.667 C 4704.5 3992.232 4704.002 3940.61 4702.003 3882.171 C 4699.012 3743.337 4694.194 3677.344 4687.359 3674.244 C 4682.113 3670.629 4668.833 3670.756 4655.864 3672.695 C 4649.412 3673.66 4643.74 3675.071 4639.484 3676.859 C 4637.444 3677.717 4636.25 3678.389 4635.315 3679.197 C 4635.183 3679.311 4635.088 3679.379 4635.022 3679.414 C 4635.516 3686.119 4644.28 3761.018 4654.964 3849.4 C 4665.97 3940.454 4675 4031.754 4675 4052 C 4675 4068.338 4677.999 4079.33 4683.325 4085.654 C 4685.796 4088.589 4687.777 4089.776 4690.944 4090.22 C 4694.215 4090.679 4697.201 4090.131 4701.452 4087.698 C 4701.476 4086.861 4701.345 4084.445 4702.156 4073.989 Z M 4294.562 4081.146 C 4294.345 4079.752 4294.084 4078.179 4293.777 4076.421 C 4292.241 4067.608 4289.667 4054.767 4286.237 4038.8 C 4279.37 4006.839 4269.138 3962.665 4257.146 3914.201 C 4234.62 3822.219 4215.311 3746.218 4211.921 3736.564 C 4211.715 3736.605 4211.479 3736.658 4211.2 3736.723 C 4208.883 3737.267 4205.842 3738.341 4201.953 3739.96 C 4194.081 3743.237 4183.954 3748.301 4173.419 3754.126 C 4152.328 3765.788 4130.805 3779.671 4124.881 3787.153 C 4114.467 3798.372 4115.917 3811.213 4129.84 3865.743 C 4155.546 3963.05 4180.535 4003.619 4242.819 4045.87 C 4265.255 4061.577 4285.258 4075.383 4294.562 4081.146 Z M 4623.121 4082.373 C 4624.918 4079.463 4624.076 4073.844 4621.111 4060.048 C 4618.088 4042.889 4615 4015.276 4615 3999 C 4615 3986.342 4614.43 3981.315 4611.323 3978.391 C 4608.183 3975.435 4602.751 3975 4590 3975 C 4577.249 3975 4571.686 3975.472 4569.025 3977.778 C 4566.702 3979.791 4566.925 3982.381 4568.877 3991.891 C 4571.912 4004.093 4576.928 4031.165 4579.945 4052.263 C 4582.387 4067.973 4584.483 4075.775 4588.377 4080.195 C 4591.981 4084.287 4596.455 4085 4607 4085 C 4618.202 4085 4621.524 4084.959 4623.121 4082.373 Z M 5177.479 4082.299 C 5179.145 4081.115 5180.294 4079.414 5181.84 4075.438 C 5185.153 4066.92 5187.546 4052.337 5190.027 4028.482 C 5194.01 3995.7 5195.599 3969.829 5193.708 3966.784 C 5189.802 3964.191 5170.238 3959.929 5146.585 3957.983 L 5107.192 3953.509 L 5101.939 3986.78 C 5097.966 4008.59 5095 4037.257 5095 4052 C 5095 4058.66 5095.148 4062.936 5096.392 4066.295 C 5097.566 4069.467 5098.974 4070.95 5103.416 4072.935 C 5113.342 4077.373 5132.993 4079.525 5172.441 4083.02 C 5174.918 4083.521 5176.009 4083.344 5177.479 4082.299 Z M 4404.088 4038.936 C 4400.086 4014.92 4396.065 3989.806 4395.068 3983.822 L 4394.954 3983.139 L 4395 3983 C 4395.279 3982.149 4395.078 3982.342 4393.948 3981.349 C 4392.597 3980.161 4390.836 3979.262 4387.72 3978.26 C 4381.169 3976.154 4371.697 3975 4359 3975 C 4342.187 3975 4333.305 3975.656 4328.977 3977.662 C 4327.373 3978.405 4327.66 3978.033 4327.495 3978.926 C 4327.279 3980.091 4327.528 3981.329 4328.667 3984.205 C 4331.679 3993.243 4337.828 4012.723 4340.889 4026.952 C 4345.865 4051.346 4348.745 4063.012 4354.2 4069.012 C 4359.301 4074.623 4366.202 4075.008 4383 4075 L 4410.958 4075 L 4404.088 4038.936 Z M 4511.382 4071.56 C 4514.238 4068.336 4514.506 4062.432 4514.003 4048.178 C 4513.035 4020.995 4510.219 4003.938 4504.252 3993.174 C 4498.573 3982.929 4491.319 3979.246 4477.828 3978.997 C 4470.465 3978.748 4465.588 3978.854 4462.007 3979.986 C 4458.781 3981.006 4457.882 3981.822 4456.756 3985.293 C 4454.076 3993.557 4455.945 4009.77 4460.932 4042.174 C 4463.879 4058.422 4465.943 4066.167 4469.998 4070.429 C 4473.798 4074.424 4478.842 4075 4491 4075 C 4503.743 4075 4508.628 4074.669 4511.382 4071.56 Z M 7316.146 4073.737 C 7317.941 4074.31 7319.263 4074.66 7320.282 4074.838 C 7319.077 4072.206 7315.993 4067.91 7310.218 4061.271 C 7300.371 4048.451 7259.359 4004.427 7220.356 3962.423 C 7161.056 3900.027 7144.495 3873.087 7127.248 3820.554 C 7099.145 3732.072 7098.03 3722.55 7080.03 3559.549 C 7037.182 3161.177 6957.022 2859.243 6771.742 2752.793 C 6737.993 2733.403 6710.671 2735.977 6708.424 2734.099 C 6718.64 2747.908 6771.634 2789.822 6796.676 2820.616 C 6853.935 2892.009 6901.864 3025.056 6936.03 3128.445 C 6971.121 3233.805 7002.581 3328.979 7026.605 3559.15 C 7061.445 3894.495 7110.698 3946.995 7231.742 4025.819 C 7273.075 4053.217 7301.739 4069.137 7316.146 4073.737 Z M 5030.754 4062.932 C 5030.8 4062.847 5030.853 4062.753 5030.911 4062.646 C 5031.917 4060.809 5032.943 4058.099 5034.076 4054.222 C 5036.387 4046.316 5038.563 4035.233 5040.033 4022.427 C 5046.034 3977.919 5048.931 3956.972 5046.614 3946.312 C 5045.607 3941.679 5044.469 3940.318 5041.051 3938.584 C 5037.341 3936.703 5031.98 3935.645 5023.932 3933.885 C 5008.281 3929.946 4979.671 3926.99 4961.786 3925.996 L 4934.233 3925.161 L 4936.995 3987.778 L 4939.808 4050.597 L 4980.629 4056.04 C 5003.697 4058.812 5024.712 4062.394 5030.754 4062.932 Z M 2348.915 3990.119 C 2489.049 3960.094 2894.33 3896.046 3074.444 3876.031 C 3216.438 3860.032 3288.503 3851.803 3325.577 3844.836 C 3343.892 3841.394 3352.78 3838.529 3357.673 3835.229 C 3361.761 3832.473 3362.117 3830.438 3363.081 3825.106 C 3364.041 3820.832 3364.343 3819.07 3363.695 3817.789 C 3363.057 3816.528 3362.294 3816.195 3357.263 3815.445 C 3346.008 3813.769 3323.304 3814.991 3279.34 3817.988 C 3180.571 3823.964 3010.966 3829.301 2659.03 3893.29 C 2541.014 3915.293 2395.637 3940.419 2329.644 3952.417 C 2263.702 3963.907 2222.635 3993.822 2202.897 4001.301 C 2193.378 4004.907 2189.175 4007.737 2187.14 4011.204 C 2185.309 4014.321 2185.566 4016.819 2187.624 4022.098 C 2189.003 4025.337 2189.882 4026.937 2191.229 4028.125 C 2192.501 4029.246 2193.254 4029.5 2196.125 4029.5 C 2202.8 4029.5 2214.026 4026.223 2235.452 4019.246 C 2261.57 4011.213 2312.84 3998.137 2348.915 3990.119 Z M 5338.411 3936.693 C 5338.938 3936.28 5338.647 3936.815 5338.714 3936.113 C 5338.805 3935.166 5338.638 3934.346 5337.876 3932.403 C 5336.212 3928.157 5332.639 3922.592 5326.985 3914.979 C 5315.652 3899.188 5300.918 3882.745 5288.323 3870.891 C 5282.064 3865 5276.599 3860.475 5272.311 3857.696 C 5270.944 3856.809 5269.916 3856.219 5269.064 3855.831 C 5267.435 3860.917 5264.635 3877.106 5262.983 3895.412 C 5261.485 3915.384 5260.709 3923.159 5264.237 3927.449 C 5267.77 3931.747 5275.62 3932.539 5295.62 3935.039 C 5321.874 3939.014 5334.452 3939.804 5338.411 3936.693 Z M 4381.185 3922.38 C 4382.665 3921.659 4382.369 3922.054 4382.524 3921.145 C 4382.728 3919.949 4382.472 3918.671 4381.333 3915.795 C 4378.28 3906.611 4372.111 3881.999 4369.056 3859.75 C 4366.093 3841.952 4364.291 3833.884 4359.881 3829.577 C 4355.639 3825.433 4349.28 3825 4334 3825 C 4316.434 3825 4301.578 3826.748 4300.287 3830.572 C 4298.534 3833.157 4301.918 3856.14 4307.872 3881.876 C 4312.863 3904.837 4315.183 3915.056 4320.552 3920.109 C 4325.713 3924.966 4333.562 3925 4353 3925 C 4368.803 3925 4377.132 3924.354 4381.185 3922.38 Z M 4490.82 3921.702 C 4494.241 3919.668 4495 3917.936 4495 3913 C 4495 3903.298 4492.051 3878.711 4489.063 3858.793 C 4486.1 3841.483 4484.327 3833.712 4479.841 3829.533 C 4475.469 3825.459 4468.787 3824.991 4453 3825 L 4424.782 3825 L 4430.948 3867.278 C 4434.938 3897.211 4437.205 3911.459 4442.405 3918.54 C 4447.136 3924.983 4453.635 3925 4471 3925 C 4481.075 3925 4486.963 3923.995 4490.82 3921.702 Z M 4601.763 3921.108 C 4604.469 3917.532 4605 3911.267 4605 3898 C 4605 3868.818 4602.661 3850.51 4596.912 3839.129 C 4591.469 3828.354 4584.405 3825 4571 3825 C 4558.776 3825 4554.719 3825.179 4552.553 3828.177 C 4550.196 3831.442 4550.485 3837.664 4551.971 3852.462 C 4555.956 3886.841 4558.815 3905.207 4563.733 3915.16 C 4565.997 3919.743 4567.895 3921.627 4571.232 3923.095 C 4574.675 3924.609 4578.743 3925 4585 3925 C 4595.51 3925 4599.264 3924.41 4601.763 3921.108 Z M 5198.997 3917.012 C 5201.557 3915.43 5203.413 3913.003 5205.673 3907.863 C 5210.449 3896.997 5214.066 3878.208 5218.041 3847.36 C 5224.019 3802.691 5224.938 3802.952 5180.877 3768.904 C 5168.559 3758.544 5156.632 3750.269 5147.13 3745.152 C 5142.454 3742.635 5138.775 3741.066 5135.808 3740.317 C 5134.561 3740.002 5133.92 3739.682 5133.632 3739.488 C 5130.03 3745.05 5122.939 3782.754 5117.97 3827.545 L 5109.478 3905.866 L 5139.793 3911.063 C 5159.734 3914.054 5182.633 3917.04 5190.62 3918.039 C 5194.424 3918.771 5196.589 3918.5 5198.997 3917.012 Z M 5043.057 3892.782 C 5049.071 3892.095 5052.219 3891 5054.731 3889.05 C 5057.084 3887.224 5058.115 3885.436 5059.133 3881.84 C 5061.142 3871.653 5067.028 3828.496 5070.011 3783.667 L 5076.611 3707.29 L 5010.337 3697.956 L 4945 3689.674 L 4945 3884.569 L 4973.602 3888.036 C 5009.494 3892.525 5030.414 3894.227 5043.057 3892.782 Z M 5355.602 3839.977 C 5358.241 3832.528 5364.302 3809.363 5370.109 3781.962 C 5382.593 3731.528 5388.092 3706.724 5383.688 3694.866 C 5381.772 3689.708 5379.04 3688.047 5371.777 3686.821 C 5364.059 3685.517 5353.276 3685.992 5338.333 3686.989 L 5289.688 3689.743 L 5286.988 3729.34 C 5283.78 3767.133 5287.076 3774.239 5319.555 3807.483 C 5330 3817.93 5339.592 3827.029 5346.988 3833.315 C 5350.542 3836.336 5353.389 3838.549 5355.602 3839.977 Z M 4348.064 3743.8 C 4345.099 3722.989 4342.856 3713.122 4341.61 3706.562 C 4338.069 3706.882 4327.629 3707.948 4307.981 3711.903 C 4294.827 3713.826 4286.36 3716.335 4281.065 3719.715 C 4276.234 3722.798 4275 3725.164 4275 3730 C 4275 3748.917 4277.45 3759.364 4284.257 3766.061 C 4291.059 3772.753 4301.537 3775.058 4320 3775 L 4353.124 3775 L 4348.064 3743.8 Z M 4470.068 3738.822 C 4466.102 3714.99 4461.538 3695.609 4461.464 3695.536 C 4460.795 3694.866 4448.739 3695.928 4432.145 3699.867 C 4420.538 3702.251 4414.036 3704.766 4409.988 3708.707 C 4406.137 3712.457 4405 3716.674 4405 3725 C 4405 3746.053 4407.12 3757.965 4413.433 3765.385 C 4419.622 3772.66 4429.118 3775.078 4447 3775 L 4476.098 3775 L 4470.068 3738.822 Z M 4588.321 3772.235 C 4589.532 3771.415 4589.689 3771.192 4590.072 3769.808 C 4590.503 3768.247 4590.553 3766.78 4590.082 3763.91 C 4582.596 3727.476 4579.051 3710.171 4573.77 3701.791 C 4571.431 3698.079 4569.711 3696.927 4565.951 3695.993 C 4561.942 3694.998 4556.75 3695 4549 3695 C 4541.778 3695 4536.691 3695.057 4533.003 3695.667 C 4529.647 3696.223 4529.057 3696.448 4528.258 3697.745 C 4526.111 3701.235 4527.426 3708.645 4530.913 3727.071 C 4535.398 3751.996 4537.829 3763.665 4542.806 3769.508 C 4547.384 3774.882 4553.643 3775 4570 3775 C 4580.134 3775 4585.343 3774.253 4588.321 3772.235 Z M 6914.284 3752.51 C 6914.319 3752.077 6914.354 3751.622 6914.388 3751.144 C 6914.756 3745.986 6915 3738.914 6915 3731 C 6915 3717.398 6914.499 3712.483 6899.588 3703.108 C 6883.452 3692.961 6852.128 3680.136 6791.158 3655.648 C 6287.396 3458.73 5885.892 3344.869 5374.148 3255.927 C 5095.26 3207.944 4961.478 3190.972 4564.586 3157.983 C 4307.79 3135.992 3520.212 3132.99 3295.443 3152.98 C 2975.526 3180.972 2769.849 3205.921 2672.095 3227.879 C 2647.566 3233.225 2627.558 3242.085 2615.144 3251.486 C 2609.103 3256.061 2605.621 3259.999 2604.074 3263.927 C 2603.369 3265.715 2603.256 3266.574 2603.521 3267.985 C 2603.788 3269.402 2604.164 3270.093 2605.536 3271.464 C 2608.177 3274.106 2649.347 3270.047 2701.147 3261.073 C 2985.391 3213.044 3432.826 3182 3880 3182 C 4317.688 3182 4607.963 3200.022 5175.578 3266.033 C 5426.722 3295.259 5984.326 3425.183 6342.517 3539.236 C 6547.621 3604.271 6832.04 3708.449 6888.361 3738.593 C 6898.761 3744.445 6908.342 3749.461 6914.284 3752.51 Z M 5234.321 3731.933 C 5234.343 3731.641 5234.365 3731.339 5234.387 3731.027 C 5234.756 3725.743 5235 3718.417 5235 3710 C 5235 3696.249 5234.696 3691.202 5231.279 3688.325 C 5227.676 3685.29 5220.857 3684.996 5205 3685 L 5182.644 3685 L 5205.371 3706.307 C 5218.046 3717.574 5228.903 3727.226 5234.321 3731.933 Z"/>
    <path d="M 2223.87 2587.95 C 2187.87 2574.95 2120.87 2546.95 2074.87 2526.95 C 1958.87 2474.95 1862.87 2468.95 1748.87 2505.95 C 1649.87 2537.95 1644.87 2537.95 1682.87 2506.95 C 1736.87 2460.95 1827.87 2410.95 1896.87 2389.95 C 1985.87 2362.95 2102.87 2368.95 2227.87 2405.95 C 2381.87 2451.95 2462.87 2438.95 2609.87 2345.95 C 2804.87 2222.95 2873.87 2196.95 3013.87 2196.95 C 3135.87 2197.95 3191.87 2211.95 3336.87 2278.95 C 3462.87 2336.95 3519.87 2351.95 3624.87 2351.95 C 3732.87 2351.95 3793.87 2333.95 3913.87 2266.95 C 3965.87 2237.95 4036.87 2203.95 4070.87 2192.95 C 4197.87 2149.95 4382.87 2147.95 4513.87 2187.95 C 4543.87 2196.95 4621.87 2230.95 4686.87 2262.95 C 4838.87 2339.95 4901.87 2355.95 5019.87 2349.95 C 5106.87 2344.95 5117.87 2341.95 5224.87 2288.95 C 5386.87 2209.95 5435.87 2196.95 5573.87 2196.95 C 5707.87 2197.95 5742.87 2206.95 5893.87 2280.95 C 6029.87 2346.95 6103.87 2364.95 6213.87 2359.95 C 6292.87 2355.95 6307.87 2351.95 6433.87 2292.95 C 6598.87 2215.95 6662.87 2198.95 6778.87 2198.95 C 6945.87 2198.95 7035.87 2230.95 7177.87 2340.95 C 7279.87 2419.95 7333.87 2436.95 7458.87 2428.95 C 7513.87 2424.95 7579.87 2412.95 7628.87 2396.95 C 7736.87 2360.95 7876.87 2363.95 7970.87 2402.95 C 8030.87 2427.95 8187.87 2520.95 8181.87 2526.95 C 8179.87 2528.95 8151.87 2520.95 8118.87 2509.95 C 8083.87 2497.95 8020.87 2486.95 7968.87 2484.95 C 7859.87 2477.95 7787.87 2494.95 7676.87 2549.95 C 7584.87 2595.95 7519.87 2611.95 7420.87 2611.95 C 7286.87 2611.95 7174.87 2572.95 7038.87 2479.95 C 6928.87 2404.95 6888.87 2390.95 6787.87 2390.95 C 6697.87 2390.95 6616.87 2413.95 6458.87 2484.95 C 6348.87 2534.95 6274.87 2551.95 6173.87 2551.95 C 6067.87 2551.95 5976.87 2527.95 5834.87 2461.95 C 5701.87 2400.95 5667.87 2391.95 5567.87 2391.95 C 5473.87 2391.95 5408.87 2408.95 5303.87 2461.95 C 5182.87 2522.95 5102.87 2543.95 4993.87 2543.95 C 4864.87 2544.95 4787.87 2523.95 4613.87 2440.95 C 4447.87 2362.95 4411.87 2352.95 4293.87 2351.95 C 4183.87 2351.95 4109.87 2371.95 4003.87 2428.95 C 3845.87 2514.95 3827.87 2522.95 3738.87 2538.95 C 3591.87 2565.95 3442.87 2538.95 3258.87 2452.95 C 3137.87 2395.95 3106.87 2387.95 3013.87 2388.95 C 2911.87 2389.95 2869.87 2404.95 2724.87 2492.95 C 2595.87 2569.95 2498.87 2602.95 2378.87 2608.95 C 2300.87 2611.95 2279.87 2609.95 2223.87 2587.95 Z"/>
  </g>
</svg>