<?xml version="1.0" encoding="utf-8"?>
<svg version="1.0" xmlns="http://www.w3.org/2000/svg" width="927.000000pt" height="927.000000pt" viewBox="0 0 927.000000 927.000000" preserveAspectRatio="xMidYMid meet">
  <g transform="matrix(0.1, 0, 0, -0.1, -23.438887, 941.961182)" fill="#000000" stroke="none">
    <path d="M 4109 9101 L 4085 9082 L 4082 8304 C 4080 7758 4026 7496 4001 7509 C 3992 7514 3896 7541 3789 7569 C 3683 7596 3570 7626 3540 7635 C 3356 7689 3259 7698 3215 7666 C 3172 7635 3191 7609 3305 7543 C 3390 7493 3546 7260 3596 7055 C 3628 6925 3631 6762 3604 6663 C 3595 6631 3490 6333 3449 6276 C 3346 6133 3313 6090 3270 6045 C 3210 5982 3193 5951 3211 5939 C 3242 5920 3286 5933 3417 6002 C 3602 6098 3627 6110 3641 6110 C 3648 6110 3680 6123 3714 6139 C 3816 6188 4013 6221 4040 6194 C 4046 6188 4046 6116 4041 6000 C 4036 5898 4034 5783 4037 5744 C 4042 5679 4040 5671 4023 5661 C 4012 5656 4000 5654 3996 5657 C 3990 5663 3977 5666 3835 5689 C 3797 5695 3711 5714 3645 5730 C 3519 5761 3416 5785 3340 5801 C 3271 5815 3092 5841 3025 5846 C 2969 5850 2962 5848 2931 5820 C 2900 5794 2897 5787 2906 5763 C 2912 5746 2935 5724 2970 5704 C 3018 5676 3185 5515 3245 5440 C 3334 5328 3371 5270 3432 5146 C 3535 4939 3611 4731 3678 4470 C 3762 4144 3771 3902 3714 3411 C 3689 3197 3644 3080 3488 2826 C 3396 2676 3370 2621 3370 2577 C 3370 2528 3382 2515 3411 2531 C 3457 2555 3526 2612 3650 2730 C 3834 2904 3849 2917 3914 2950 C 3967 2977 3976 2979 3994 2966 C 4014 2953 4015 2942 4018 2724 C 4022 2471 4003 2063 3987 2042 C 3980 2034 3966 2031 3951 2034 C 3937 2037 3860 2042 3780 2046 C 3609 2052 3430 2092 3344 2141 C 3289 2172 3200 2262 3174 2312 C 3137 2383 3122 2560 3146 2643 C 3150 2657 3139 2666 3093 2686 C 3061 2700 2997 2731 2950 2754 C 2903 2778 2825 2814 2775 2835 C 2726 2856 2680 2877 2674 2882 C 2668 2886 2625 2904 2579 2920 C 2444 2969 2453 2954 2444 3137 C 2439 3224 2435 3383 2435 3490 L 2435 3685 L 2462 3688 C 2523 3695 2916 3592 3035 3537 C 3074 3519 3132 3483 3165 3455 C 3310 3334 3322 3326 3331 3341 C 3348 3369 3353 3444 3342 3524 C 3330 3617 3330 3618 3296 3725 C 3234 3926 3217 3965 3129 4112 C 3110 4143 3066 4218 3031 4279 C 2962 4398 2921 4452 2760 4631 C 2702 4695 2636 4774 2613 4807 C 2589 4839 2546 4892 2517 4926 L 2463 4986 L 2457 5131 C 2453 5210 2450 5372 2450 5490 C 2450 5608 2445 5824 2440 5970 C 2435 6116 2428 6343 2425 6475 C 2419 6742 2415 6798 2397 6838 C 2381 6874 2372 6880 2323 6880 C 2288 6880 2277 6875 2263 6853 C 2248 6830 2245 6806 2247 6685 C 2249 6608 2254 6466 2259 6370 C 2289 5833 2293 5655 2282 5525 C 2275 5454 2270 5362 2270 5323 C 2270 5240 2262 5234 2213 5278 C 2177 5310 2092 5411 2030 5496 C 2006 5528 1959 5584 1926 5620 C 1892 5656 1836 5721 1800 5764 C 1764 5807 1698 5881 1654 5929 C 1609 5976 1550 6042 1524 6075 C 1497 6108 1444 6171 1405 6216 C 1367 6260 1324 6310 1311 6326 C 1298 6342 1266 6378 1241 6405 C 1216 6433 1170 6484 1140 6520 C 1033 6647 986 6690 952 6690 C 931 6690 915 6682 901 6664 C 866 6619 874 6589 943 6503 C 977 6460 1023 6400 1045 6370 C 1097 6299 1115 6274 1173 6199 C 1199 6164 1220 6132 1220 6128 C 1220 6124 1235 6097 1253 6068 C 1281 6023 1335 5912 1385 5795 C 1392 5779 1416 5725 1438 5675 C 1477 5585 1487 5549 1514 5390 C 1522 5343 1532 5287 1536 5265 C 1547 5203 1548 4914 1538 4830 C 1484 4371 1404 4164 1102 3711 C 1071 3665 1026 3605 1001 3577 C 950 3521 953 3521 1060 3566 C 1239 3641 1314 3663 1465 3689 C 1672 3725 1762 3732 1975 3728 L 2185 3725 L 2189 3695 C 2191 3679 2187 3613 2181 3550 C 2174 3487 2165 3367 2161 3283 C 2156 3187 2149 3125 2141 3116 C 2131 3105 2116 3102 2082 3106 C 1986 3118 1719 3170 1555 3210 C 1462 3233 1306 3269 1210 3290 C 1114 3311 955 3347 858 3369 C 760 3392 674 3410 666 3410 C 659 3410 642 3402 630 3392 C 608 3374 607 3372 619 3294 C 666 2990 682 2849 687 2688 C 691 2545 690 2524 670 2465 C 658 2429 650 2393 653 2386 C 656 2379 698 2353 747 2330 C 893 2259 985 2142 1039 1962 C 1053 1914 1072 1876 1094 1852 C 1133 1809 1155 1768 1181 1692 C 1208 1615 1205 1583 1164 1494 C 1116 1388 1100 1321 1099 1220 C 1098 1112 1129 981 1169 925 C 1223 849 1422 754 1670 686 C 1973 603 2190 558 2550 504 C 2659 487 2947 473 3300 465 C 3435 462 3595 458 3655 455 C 3807 448 5349 447 5380 454 C 5394 457 5464 462 5535 464 C 5928 480 6447 571 6647 659 C 6686 676 6722 690 6728 690 C 6748 690 6905 838 6970 919 C 7041 1007 7143 1190 7176 1290 C 7203 1372 7202 1580 7172 1785 C 7158 1880 7151 1962 7155 1988 C 7164 2047 7205 2165 7236 2217 C 7292 2314 7483 2525 7570 2588 C 7629 2630 7764 2696 7837 2718 L 7895 2736 L 7898 2785 C 7902 2864 7908 2877 7953 2908 C 8051 2975 8335 3070 8438 3070 C 8501 3070 8592 3050 8633 3027 C 8725 2976 8719 2868 8620 2789 C 8558 2739 8568 2710 8650 2710 C 8716 2710 8862 2822 8969 2955 C 9001 2995 9077 3161 9088 3215 C 9116 3352 9096 3650 9054 3732 C 9029 3780 9035 3797 9080 3804 C 9115 3809 9120 3814 9120 3836 C 9120 3886 9105 3897 9008 3919 C 8957 3931 8866 3949 8805 3960 C 8571 4001 8515 4012 8510 4017 C 8507 4020 8530 4045 8562 4073 C 8833 4321 9120 4594 9125 4610 C 9135 4641 9113 4670 9080 4670 C 9045 4670 8940 4601 8815 4495 C 8573 4291 8400 4157 8309 4104 C 8250 4069 8244 4068 8181 4074 C 8145 4077 8104 4082 8090 4085 C 8052 4094 7944 4110 7862 4119 C 7822 4124 7783 4133 7775 4140 C 7763 4150 7760 4182 7760 4299 C 7760 4380 7755 4473 7750 4506 C 7739 4567 7678 4771 7655 4825 C 7586 4984 7562 5034 7526 5093 C 7441 5234 7444 5228 7458 5250 C 7491 5303 7458 5336 7355 5354 C 7311 5362 7255 5375 7230 5383 C 7155 5409 7099 5422 7010 5435 C 6963 5442 6898 5455 6865 5465 C 6798 5484 6713 5499 6628 5507 C 6593 5510 6566 5518 6556 5529 C 6543 5544 6540 5616 6538 6093 L 6535 6640 L 6572 6640 C 6592 6640 6638 6633 6673 6625 C 6722 6614 6788 6611 6932 6612 L 7125 6615 L 7205 6573 C 7305 6522 7346 6510 7436 6510 C 7513 6510 7589 6531 7614 6559 C 7630 6576 7627 6578 7560 6584 C 7491 6591 7480 6595 7320 6681 C 7295 6695 7255 6713 7231 6722 C 7194 6737 7189 6742 7200 6755 C 7218 6777 7311 6774 7390 6750 C 7494 6718 7582 6727 7637 6775 L 7665 6798 L 7618 6798 C 7580 6797 7547 6809 7443 6860 C 7280 6940 7247 6950 7136 6950 C 6915 6951 6791 6977 6634 7059 L 6545 7105 L 6538 7225 C 6532 7318 6526 7351 6512 7370 C 6490 7399 6444 7407 6418 7388 C 6390 7367 6383 7123 6385 6309 C 6387 5909 6384 5576 6379 5569 C 6370 5554 6353 5557 6055 5621 C 5978 5637 5890 5656 5860 5662 C 5830 5668 5781 5679 5752 5686 C 5723 5693 5654 5702 5599 5706 C 5512 5712 5497 5711 5480 5695 C 5433 5653 5476 5558 5547 5547 C 5702 5522 5890 5329 6069 5011 C 6228 4730 6276 4468 6251 4027 C 6234 3730 6198 3615 6055 3395 C 5989 3294 5916 3172 5879 3098 C 5851 3043 5841 2990 5858 2990 C 5881 2990 6027 3085 6100 3149 C 6192 3228 6243 3264 6304 3293 C 6368 3322 6372 3312 6374 3115 C 6375 2968 6373 2947 6358 2936 C 6343 2925 6115 2867 5685 2764 C 5630 2751 5548 2728 5503 2713 C 5419 2685 5400 2668 5400 2617 C 5400 2575 5324 2436 5254 2350 C 5100 2160 5011 2091 4880 2060 C 4801 2041 4329 2040 4307 2058 C 4293 2070 4292 2104 4297 2353 C 4300 2508 4303 2741 4303 2870 L 4305 3105 L 4370 3137 C 4472 3188 4550 3201 4744 3201 C 4838 3202 4939 3197 4969 3191 C 5117 3161 5313 3033 5359 2936 C 5378 2895 5383 2891 5400 2900 C 5424 2913 5560 3095 5602 3170 C 5655 3265 5714 3430 5736 3545 C 5738 3556 5746 3599 5754 3640 C 5825 3999 5833 4390 5775 4625 C 5729 4812 5618 4995 5435 5184 L 5349 5274 L 5379 5298 C 5401 5314 5410 5330 5410 5350 C 5410 5382 5402 5389 5362 5396 C 5347 5399 5297 5409 5250 5420 C 5203 5430 5120 5443 5065 5449 C 4969 5459 4908 5471 4755 5510 C 4717 5520 4660 5531 4630 5535 C 4516 5550 4297 5600 4280 5615 C 4267 5626 4261 5654 4257 5718 C 4248 5837 4247 6180 4255 6188 C 4259 6192 4308 6195 4363 6194 C 4456 6193 4477 6189 4603 6147 C 4840 6068 4942 5993 5030 5831 C 5096 5711 5102 5703 5135 5715 C 5152 5721 5173 5744 5191 5775 C 5271 5912 5292 5964 5310 6070 C 5317 6106 5326 6160 5332 6190 C 5338 6221 5339 6301 5336 6373 C 5321 6686 5273 6859 5152 7028 C 5112 7085 5109 7092 5123 7108 C 5146 7134 5154 7178 5139 7196 C 5117 7223 5059 7247 4950 7275 C 4892 7289 4829 7305 4810 7310 C 4672 7345 4530 7380 4502 7385 C 4484 7388 4451 7397 4427 7404 C 4404 7412 4363 7422 4337 7425 C 4257 7437 4252 7446 4249 7590 C 4244 7852 4249 8022 4263 8017 C 4464 7928 4580 7923 4932 7991 C 5113 8026 5193 8027 5198 7995 C 5206 7939 5211 7932 5250 7916 C 5300 7896 5346 7896 5447 7915 C 5557 7936 5630 7934 5745 7905 C 5953 7853 5989 7853 6086 7907 L 6134 7934 L 6070 7946 C 5998 7959 5865 8020 5792 8073 C 5694 8145 5671 8152 5540 8148 C 5404 8145 5390 8151 5396 8208 C 5435 8577 5442 8751 5418 8790 C 5411 8802 5383 8823 5356 8837 C 5250 8891 5098 8902 4858 8874 C 4609 8845 4381 8860 4267 8915 C 4233 8931 4233 8932 4228 9006 C 4222 9090 4204 9120 4160 9120 C 4145 9120 4122 9111 4109 9101 Z M 4805 8663 C 4778 8600 4771 8568 4770 8512 L 4770 8448 L 4863 8452 C 4925 8454 4966 8461 4989 8473 C 5008 8482 5024 8489 5025 8488 C 5033 8479 5035 8280 5028 8280 C 5023 8280 5001 8289 4978 8301 C 4933 8324 4847 8336 4805 8326 C 4778 8319 4777 8318 4782 8250 C 4785 8207 4795 8166 4809 8140 C 4821 8116 4829 8096 4827 8094 C 4821 8087 4632 8084 4626 8090 C 4623 8093 4628 8115 4636 8139 C 4644 8162 4653 8215 4657 8256 L 4663 8330 L 4599 8330 C 4529 8329 4470 8312 4439 8284 C 4422 8268 4417 8268 4410 8280 C 4398 8298 4397 8490 4408 8490 C 4413 8490 4436 8480 4461 8468 C 4488 8455 4532 8445 4578 8442 L 4650 8437 L 4650 8512 C 4650 8566 4645 8596 4630 8624 C 4620 8646 4613 8667 4616 8671 C 4619 8676 4664 8680 4717 8680 C 4804 8680 4811 8678 4805 8663 Z M 4648 5079 C 4688 5074 4747 5070 4779 5070 C 4811 5070 4839 5067 4843 5064 C 4846 5061 4837 5037 4823 5012 C 4797 4966 4797 4965 4804 4805 C 4813 4573 4819 4544 4862 4538 C 4875 4536 4939 4538 5005 4542 C 5098 4547 5140 4554 5194 4574 C 5273 4604 5326 4634 5339 4658 C 5344 4667 5352 4671 5357 4667 C 5367 4657 5385 4208 5377 4186 C 5371 4172 5361 4176 5313 4208 C 5203 4281 5102 4310 4956 4310 L 4857 4310 L 4864 4218 C 4885 3938 4891 3890 4908 3835 C 4918 3802 4933 3765 4941 3753 C 4962 3719 4944 3712 4865 3721 C 4827 3725 4744 3729 4682 3729 C 4551 3730 4544 3735 4588 3801 C 4625 3857 4636 3888 4655 3978 C 4674 4071 4676 4313 4658 4328 C 4639 4343 4446 4352 4354 4342 C 4269 4332 4174 4296 4133 4258 C 4121 4247 4108 4240 4103 4243 C 4098 4246 4093 4279 4091 4317 C 4086 4453 4080 4494 4053 4613 C 4045 4650 4040 4684 4044 4687 C 4047 4691 4092 4672 4143 4647 C 4287 4573 4373 4550 4524 4543 L 4653 4537 L 4647 4576 C 4644 4597 4638 4626 4635 4640 C 4631 4654 4625 4683 4620 4705 C 4610 4758 4582 4839 4563 4870 C 4525 4931 4436 5042 4414 5056 C 4401 5065 4390 5078 4390 5086 C 4390 5097 4408 5099 4483 5094 C 4533 5091 4608 5084 4648 5079 Z M 7722 3858 C 7744 3839 7824 3730 7826 3714 C 7828 3699 7781 3655 7489 3393 C 7226 3157 7159 3104 7120 3097 C 7085 3090 6978 3066 6750 3011 C 6606 2976 6575 2974 6566 2996 C 6558 3017 6558 3394 6567 3443 C 6574 3488 6592 3498 6760 3553 C 6848 3582 6866 3584 6995 3585 C 7111 3585 7143 3582 7177 3566 C 7218 3548 7240 3517 7240 3477 C 7240 3454 7188 3356 7170 3345 C 7156 3336 7158 3290 7173 3290 C 7201 3290 7285 3350 7378 3437 C 7486 3537 7588 3678 7630 3785 C 7658 3857 7667 3870 7689 3870 C 7699 3870 7713 3864 7722 3858 Z M 7927 3443 C 7932 3427 7935 3354 7934 3280 C 7934 3160 7930 3136 7906 3065 C 7891 3021 7875 2981 7871 2977 C 7864 2970 7835 3092 7822 3178 C 7817 3216 7811 3217 7696 3195 C 7652 3186 7613 3183 7610 3187 C 7601 3197 7886 3470 7905 3470 C 7913 3470 7923 3458 7927 3443 Z"/>
  </g>
</svg>